<svg id="Layer_1" data-name="Layer 1" xmlns="http://www.w3.org/2000/svg" xmlns:xlink="http://www.w3.org/1999/xlink" viewBox="0 0 161.2 331.7"><defs><style>.cls-1{fill:url(#linear-gradient);}.cls-10,.cls-11,.cls-2,.cls-3,.cls-4,.cls-6,.cls-7,.cls-8,.cls-9{isolation:isolate;}.cls-3,.cls-4{font-size:80.83px;fill:#010101;font-family:Bellfort Rough Demo;}.cls-4{white-space:pre;}.cls-5{letter-spacing:-1px;}.cls-6{fill:#1f9cd8;opacity:0.7;}.cls-7{fill:#7f287d;}.cls-7,.cls-9{opacity:0.8;}.cls-8{fill:#d6d82f;}.cls-10,.cls-11,.cls-8{opacity:0.9;}.cls-9{fill:#c6328c;}.cls-10{fill:#313180;}.cls-11{fill:#c22327;}.cls-12{fill:none;}</style><linearGradient id="linear-gradient" x1="259.65" y1="400" x2="300.21" y2="400" gradientTransform="matrix(1, 0, 0, -1, 0, 842.11)" gradientUnits="userSpaceOnUse"><stop offset="0.01" stop-color="#020202"/><stop offset="1" stop-color="#010101"/></linearGradient></defs><title>Logo</title><path id="icon" class="cls-1" d="M300.2,454.91v-32.4a8.94,8.94,0,0,0-9.1-8.8h-9.2l2.2-6.6v-0.2c5.7,0.2,6.7.7,6.8,1a0.5,0.5,0,1,0,1,0,1.08,1.08,0,0,0-.3-0.7c-1-1-4.4-1.3-12-1.3-3.5,0-6.3.1-8.3,0.3-2.8.3-4,.8-4,1.7a0.5,0.5,0,0,0,1,0c0.1-.1,1-0.8,6.8-1v0.2l2.6,6.5h-9.2a9,9,0,0,0-9.1,8.8v32.4c0,4.4,3.5,8.1,7,8.6h3.1l-8.6,14.9H265l0.2-.3a0.6,0.6,0,0,1,.6-0.3h27.9a0.71,0.71,0,0,1,.6.3l0.2,0.3h4.1l-8.6-14.9h3.1C296.7,463,300.2,459.41,300.2,454.91Zm-23.8-48h6.8l-2.3,6.8h-1.7Zm-2.4,10.2a1.54,1.54,0,0,1,1.5-1.5h8.8a1.54,1.54,0,0,1,1.5,1.5v2.6a1.54,1.54,0,0,1-1.5,1.5h-8.8a1.54,1.54,0,0,1-1.5-1.5v-2.6Zm-9.5,10.3a4.3,4.3,0,0,1,4.5-4.5h21.8a4.25,4.25,0,0,1,4.5,4.5v5.8a4.3,4.3,0,0,1-4.5,4.5H269a4.3,4.3,0,0,1-4.5-4.5v-5.8Zm21.7,36.4c0.1,0.2,1.6,2.8,1.7,3s0,0.4-.3.4H272.1c-0.3,0-.4-0.2-0.3-0.4s1.7-2.9,1.7-3a0.52,0.52,0,0,1,.4-0.2h11.8A0.59,0.59,0,0,1,286.2,463.81Zm-17.6-5a4,4,0,1,1,4-4A4,4,0,0,1,268.6,458.81Zm21.7,12.1c0.1,0.2,1.6,2.8,1.7,3s0,0.4-.3.4H268.1c-0.3,0-.4-0.2-0.3-0.4s1.7-2.9,1.7-3a0.52,0.52,0,0,1,.4-0.2h19.9A0.59,0.59,0,0,1,290.3,470.91Zm-3.1-16a4,4,0,1,1,4,4A4.08,4.08,0,0,1,287.2,454.91Z" transform="translate(-190.6 -229.61)"/><g class="cls-2"><text class="cls-3" transform="translate(9.88 174.89)">NIGHT</text><text class="cls-4" transform="translate(5.78 243.39)">TR   M</text><text class="cls-3" transform="translate(4.88 311.89)"><tspan class="cls-5">P</tspan><tspan x="29.21" y="0">ARTY</tspan></text></g><path class="cls-6" d="M221.3,313.31h-1.1v-0.8h-0.5l-0.2-.3-0.2.3h-0.5v0.8h-1.1v1.2h-0.1v7h3.8v-7h-0.2v-1.2h0.1Zm-2.7,7.8h-0.8v-3.3h0.8v3.3Zm0-3.7h-0.8V315h0.8v2.4Zm1.2,3.7H219v-3.3h0.8v3.3Zm0-3.7H219V315h0.8v2.4Zm1.3,3.7h-0.8v-3.3h0.8v3.3Zm0-3.7h-0.8V315h0.8v2.4Zm32.2-2.1v-0.7l-0.2-.4v-0.7h0.2l0.8-.7h0.2v-1h0.4v1H255v2.7h-1.7v-0.2h0Zm-30.9-2.9v-2.3h-0.1v-0.8l0.2-.5v-0.4h-5.9v0.4l0.2,0.5v0.8h-0.1v2.3l0.4,0.6v1l-0.1.1v8.8l0.4,0.2v0.3h1.7v-0.1h-0.4v-0.8h0.4v-0.6h1v0.6h0.4v0.8h-0.4v0.1h1.7v-0.3l0.4-.2v-8.8l-0.1-.1v-1Zm-0.6,9.5h-4.6v-7.8h0.2v-1.2h1.1v-0.8h0.6v-0.4h0.7v0.5h0.8V313h1.1v1.2h0.2v7.7h-0.1Zm31.2,4.2v7.8l0.3,0.2V335H252v-0.9l0.3-.2v-7.8l-0.2-.3H252l0.3-.1v-7.2H253v7.2l0.3,0.1h-0.1Zm-28.9-.5v1h-0.2v-2.8H226v0.3h-0.9V325h-0.6v0.6h-0.4Zm29.4-14.7h0l-8.7.1v-0.9h8.6v0.4h0.5v0.4h-0.4Zm-8.5-2.4v1.2h-0.2v-0.4l-0.2-.5v-0.4H245v0.1Zm-16.2,25.4h-0.7v-6.5a3.14,3.14,0,0,0-1.6-1.4,3.14,3.14,0,0,0-1.6,1.4v6.5h-0.7v-0.4l-0.3-.3v-1.8h0.2v-0.7h-0.2v-3.8h0.6v-1h0.4v-0.6h0.6v-0.9h0.9v-1.5H226v-0.1h0.4v-0.6h0.2v0.6H227v0.1h-0.4v1.5h0.9v0.9h0.6v0.6h0.4v1h0.6v3.8h-0.2v0.8h0.2v1.8l-0.3.3v0.3Zm-22-28v-0.3h39.4v0.3h-0.3v0.3l-0.9.8v1.1h-0.4v-0.6h0.2v-0.6l-0.4-.7h-0.7l-0.4.7v0.6h0.2v0.6h-6v-0.6h0.2v-0.6l-0.4-.7h-0.7l-0.4.7v0.6h0.2v0.6h-5.8v-0.6h0.2v-0.6l-0.4-.7h-0.7l-0.4.7v0.6h0.2v0.6h-6v-0.6h0.2v-0.6l-0.4-.7h-0.7l-0.4.7v0.6h0.2v0.6h-5.8v-0.6h0.2v-0.6l-0.4-.7h-0.7l-0.4.7v0.6h0.2v0.6h-6v-0.6h0.2v-0.6l-0.4-.7h-0.7l-0.4.7v0.6h0.2v0.6H208V307l-0.9-.8v-0.3h-0.3Zm-7.2,5.1h0l-0.3-.1v-0.4h0.5v-0.4h8.6V311h-8.8Zm0.2,23.2,0.3-.2v-7.8l-0.2-.3h-0.1l0.3-.1v-7.2h0.8v7.2l0.3,0.1h-0.1l-0.2.3V334l0.3,0.2v0.9h-1.3v-0.9h-0.1Zm29.3-10.4h0v2.7h-0.2v-1h-0.3v-0.6H228V324h-0.9v-0.3h2v0.1Zm6.2-10.5h-1.1v-0.8h-0.5l-0.2-.3h0l-0.2.3h-0.5v0.8h-1.1v1.2h-0.1v7h3.8v-7h-0.2v-1.2h0.1Zm-2.6,7.8h-0.8v-3.3h0.8v3.3Zm0-3.7h-0.8V315h0.8v2.4Zm1.2,3.7h-0.8v-3.3h0.8v3.3Zm0-3.7h-0.8V315h0.8v2.4Zm1.3,3.7h-0.8v-3.3h0.8v3.3Zm0-3.7h-0.8V315h0.8v2.4Zm8.3-5v-2.3h-0.1v-0.8l0.2-.5v-0.4h-6v0.4l0.2,0.5v0.8h-0.1v2.3l0.4,0.6v1l-0.1.1v8.8l0.4,0.2v0.3h1.7v-0.1h-0.4v-0.8h0.4v-0.6h1v0.6h0.4v0.8h-0.4v0.1h1.7v-0.3l0.4-.2v-8.8l-0.1-.1v-1Zm-0.7,9.5h-4.6v-7.8h0.2v-1.2h1.1v-0.8h0.6v-0.4h0.7v0.5h0.6V313h1.1v1.2h0.2v7.7h0.1Zm-6.4-9.5v-2.3h-0.1v-0.8l0.2-.5v-0.4h-5.9v0.4l0.2,0.5v0.8h-0.1v2.3l0.4,0.6v1l-0.1.1v8.8l0.4,0.2v0.3h1.7v-0.1h-0.4v-0.8h0.4v-0.6h1v0.6h0.4v0.8h-0.4v0.1h1.7v-0.3l0.4-.2v-8.8l-0.1-.1v-1Zm-0.5,9.5h-4.6v-7.8h0.2v-1.2h1.1v-0.8h0.6v-0.4h0.7v0.5h0.6V313h1.1v1.2h0.2v7.7h0.1Zm2.4,12.4h4.6v0.4h-4.6v-0.4Zm4.9-10.5h0v2.7H243v-1h-0.4v-0.6H242V324h-0.9v-0.3h2.1v0.1Zm-11.9,10.5h4.5v0.4h-4.5v-0.4Zm6.9-8.7v1H238v-2.8h2.1v0.3h-0.9V325h-0.6v0.6h-0.4Zm4.7,8.3h-0.8v-6.5a1.61,1.61,0,0,0-3.2,0v6.5h-0.5v-0.4l-0.3-.3v-1.8h0.2v-0.7h-0.2v-3.8h0.6v-1h0.4v-0.6h0.6v-0.9h0.9v-1.5h-0.4v-0.1h0.4v-0.6h0.2v0.6h0.4v0.1h-0.4v1.5h0.9v0.9h0.6v0.6h0.4v1h0.6v3.8h-0.2v0.8h0.2v1.8l-0.3.3v0.3h-0.1Zm-7.1,0h-0.5v-6.5a1.61,1.61,0,0,0-3.2,0v6.5h-0.7v-0.4l-0.3-.3v-1.8h0.2v-0.7h-0.2v-3.8h0.5v-1H232v-0.6h0.6v-0.9h0.9v-1.5h-0.4v-0.1h0.4v-0.6h0.2v0.6h0.4v0.1h-0.5v1.5h0.9v0.9h0.6v0.6h0.4v1h0.6v3.8h-0.2v0.8h0.2v1.8l-0.3.3v0.3Zm-18.5.4h4.5v0.4h-4.5v-0.4Zm11-21h-1.1v-0.8h-0.5l-0.2-.3-0.2.3h-0.5v0.8h-1.1v1.2h-0.1v7h3.8v-7h-0.2v-1.2h0.1Zm-2.6,7.8h-0.8v-3.3h0.8v3.3Zm0-3.7h-0.8V315h0.8v2.4Zm1.2,3.7h-0.8v-3.3h0.8v3.3Zm0-3.7h-0.8V315h0.8v2.4Zm1.3,3.7h-0.8v-3.3h0.8v3.3Zm0-3.7h-0.8V315h0.8v2.4Zm14.1-4.1h-1.1v-0.8h-0.5l-0.2-.3h0l-0.2.3h-0.5v0.8h-1.1v1.2h-0.1v7h3.8v-7h-0.2v-1.2h0.1Zm-2.6,7.8h-0.8v-3.3h0.8v3.3Zm0-3.7h-0.8V315h0.8v2.4Zm1.2,3.7h-0.8v-3.3h0.8v3.3Zm0-3.7h-0.8V315h0.8v2.4Zm1.3,3.7h-0.8v-3.3h0.8v3.3Zm0-3.7h-0.8V315h0.8v2.4Zm-12.8-5v-2.3h-0.1v-0.8l0.2-.5v-0.4h-6v0.4l0.2,0.5v0.8h-0.1v2.3L224,313v1l-0.1.1v8.8l0.4,0.2v0.3H226v-0.1h-0.4v-0.8H226v-0.6h1v0.6h0.4v0.8H227v0.1h1.7v-0.3l0.4-.2v-8.8L229,314v-1Zm-0.5,9.5h-4.6v-7.8h0.2v-1.2h1.1v-0.8h0.6v-0.4h0.7v0.5h0.6V313h1.1v1.2h0.2v7.7h0.1Zm-4.6,12.4h4.6v0.4h-4.6v-0.4Zm6.8-8.7v1H231v-2.8h2.1v0.3h-0.9V325h-0.6v0.6h-0.5Zm5-1.8h0v2.7h-0.2v-1h-0.3v-0.6H235V324h-0.9v-0.3h2v0.1Zm11.3,0.8h2.7v-4.8h-2.7v4.8Zm1.7-3.7h0.6v0.7h-0.6v-0.7Zm0,1.1h0.6v2.2h-0.6V322Zm-1.2-1.1h0.6v0.7h-0.6v-0.7Zm0,1.1h0.6v2.2h-0.6V322Zm-47.6-4.9v-2.3h-0.1v-0.1l0.2-.4v-1.5h-0.2l0.2-.3h0.1l0.2,0.3h-0.2v1.5l0.2,0.4v0.2h-0.1v2.3l0.3,0.5v0.5h-1v-0.5Zm28.5,18h-4.6v-0.3h4.6v0.3Zm-6.3-1.6v-2.4h0v-7.4l-0.2-.3h-0.2l0.4-.2v-9h1v9l0.4,0.2h-0.2l-0.2.3v7.4h0v2.4l0.3,0.3v1.3h-1.7v-1.3Zm14.1,0v-2.4h0v-7.4l-0.2-.3h-0.2l0.4-.2v-9h1v9l0.4,0.2h-0.2l-0.2.3v7.4h0v2.4l0.3,0.3v1.3h-1.7v-1.3Zm-14.8,1.6h-4.5v-0.3h4.5v0.3Zm14,0h-4.5v-0.3h4.5v0.3Zm-28.1,0v-1.5l0.3-.3v-1.6h-6.7v0.7h-0.2v1.4l0.3,0.2v1.1h6.3Zm-3.6-2.7h0.6v1.7h-0.6v-1.7Zm-1.1,0h0.6v1.7H203v-1.7Zm-3.1-17h-1.7v-2.7h0.3v-1h0.4v1h0.2l0.8,0.7h0.2v0.7l-0.2.4v0.7H200v0.2h-0.1Zm15.6,18.1v-2.4h0v-7.4l-0.2-.3h-0.2l0.4-.2v-9h1v9l0.4,0.2h-0.2l-0.2.3v7.4h0v2.4l0.3,0.3v1.3h-1.7v-1.3Zm27.4,1.6h-4.6v-0.3h4.6v0.3Zm-28.1,0h-4.6v-0.3h4.6v0.3Zm-6.3-1.6v-2.4h0v-7.4l-0.2-.3h-0.2l0.4-.2v-9h1v9l0.4,0.2h-0.2l-0.2.3v7.4h0v2.4l0.3,0.3v1.3h-1.7v-1.3Zm21.1,0v-2.4h0v-7.4l-0.2-.3h-0.2l0.4-.2v-9h1v9l0.4,0.2h-0.2l-0.2.3v7.4h0v2.4l0.3,0.3v1.3h-1.7v-1.3Zm-20.8-29.3-0.2-.1v-0.3h0.5V302s-0.1-.3.3-0.3a0.29,0.29,0,0,1,.3.3v1.8H216V302s-0.1-.3.3-0.3a0.29,0.29,0,0,1,.3.3v1.8h5.9v1.3H208.8v-0.9Zm36,8.2,0.4,0.6v1l-0.1.1v8.8l0.4,0.2v0.7h-0.4v2.1h6.5v-0.2l0.3-.2v-7l-0.1-.1v-0.8l0.3-.5v-1.8H252v-0.7l0.2-.4v-1H252v-0.5l0.3-.6h0.6l0.2,0.3v-0.9h-8.3v0.9Zm2.4,0.6h3.2v5.1h-3.2V313Zm-0.2,6.4h3.5V325H247v-5.6Zm-10.4-17.3s-0.1-.3.3-0.3a0.29,0.29,0,0,1,.3.3v1.8h6.3v-1.8s-0.1-.3.3-0.3a0.29,0.29,0,0,1,.3.3v1.8h0.5v0.3l-0.2.1v0.9H230.8v-1.3h5.9v-1.8h-0.1Zm-13.6-2.6s-0.1-.4.2-0.4,0.2,0.4.2,0.4v1.7h0.3v1.7h0.6v-1.4h0.3v-2h0.9v1.4h0.3v-1.3h0.3v-1.4h0.1v-1.3h0.1v-1.6s-0.1-.3.3-0.3,0.3,0.3.3,0.3v1.6H227v1.3h0.1v1.4h0.3v1.3h0.3v-1.4h0.9v2h0.3v1.4h0.6v-1.7h0.3v-1.7s-0.1-.4.2-0.4,0.2,0.4.2,0.4v1.7h0.2v4h-2v-0.8h-0.3v0.8H225v-0.8h-0.3v0.8h-2v-4h0.2v-1.7H223Zm-23.6,35.6h-2.3v-1.7l0.4-.3h0.2v-1.2h-0.1v-0.4h0.2v-3.9h-0.2v-0.3l0.2-.3v-10.2l-0.5-.3v-0.3h0.9v-0.4h1.7V317l-0.3.5v0.8l0.1,0.1v7l-0.3.2v0.6h0.3v5.4h-0.2v0.7h0.2v1.4l-0.3.2v1.2h0Zm56.5-1.7v1.7h-2.3V334l-0.3-.2v-1.4h0.2v-0.7h-0.2v-5.4h0.3v-0.6l-0.3-.2v-7l0.1-.1v-0.8l-0.3-.5v-1.2h1.7v0.4h0.9v0.3l-0.5.3v10.2l0.2,0.3v0.3h-0.2v3.9h0.2V332h-0.2v1.2h0.2Zm-12.3.1v-2.4h0v-7.4l-0.2-.3h-0.2l0.4-.2v-9h1v9l0.4,0.2h-0.2l-0.2.3v7.4h0v2.4l0.3,0.3v1.3h-1.7v-1.3Zm7.2-2.2v-3.6l-0.1-.1a4.14,4.14,0,0,0-1.6-.4,3.55,3.55,0,0,0-1.6.4l-0.1.1v3.6h-2.1v-0.6h-0.2v-4.5h6.8v5h-1.1v0.1Zm-3.2-13.6H250v-4.3h-2.4v4.3Zm1.5-3.6h0.6v0.7h-0.6v-0.7Zm0,1.1h0.6v2h-0.6v-2Zm-1.2-1.1h0.6v0.7h-0.6v-0.7Zm0,1.1h0.6v2h-0.6v-2Zm-0.1,12.7v3.4h2.7v-3.4a3.07,3.07,0,0,0-1.3-.3A2.21,2.21,0,0,0,247.8,327.91Zm1.1,3.3h-0.8v-2.1h0.8v2.1Zm0-2.4h-0.8v-0.7h0.8v0.7Zm0.4-.7h0.8v0.7h-0.8v-0.7Zm0,1h0.8v2.1h-0.8v-2.1Zm3.5-12,0.3,0.5v0.5h-1v-0.5l0.3-.5v-2.3h-0.1v-0.1l0.2-.4v-1.5h-0.2l0.2-.3h0.1l0.2,0.3h-0.2v1.5l0.2,0.4v0.2h-0.1v2.2h0.1Zm-1.2,18V334l0.3-.2v-1.4h-0.2v-0.7H245v1.7l0.3,0.3v1.5h6.3v-0.1Zm-2.1-2.7h0.6v1.7h-0.6v-1.7Zm-1.1,0H249v1.7h-0.6v-1.7Zm-26.6,1.5h-0.7v-6.5a3.14,3.14,0,0,0-1.6-1.4,3.14,3.14,0,0,0-1.6,1.4v6.5h-0.5v-0.4l-0.3-.3v-1.8h0.2v-0.7h-0.2v-3.8h0.6v-1h0.4v-0.6h0.5v-0.9h0.9v-1.5h-0.4v-0.1h0.4v-0.6h0.1v0.6H220v0.1h-0.4v1.5h1v0.9h0.6v0.6h0.4v1h0.5v3.8h-0.2v0.8h0.2v1.8l-0.3.3v0.3Zm-11.7-8.3v1h-0.2v-2.8H212v0.3h-0.9V325h-0.6v0.6h-0.4Zm5-1.8h0v2.7h-0.2v-1h-0.4v-0.6h-0.6V324H213v-0.3h2.1v0.1Zm0.3-10h0v-0.7l0.4-.6v-2.8h-0.1v-0.3l0.2-.5v-1.8h-0.2V307l0.2-.4h0.2l0.2,0.4v0.1h-0.2v1.8l0.2,0.5v0.3h-0.1v2.8l0.4,0.6v0.7h-1.2Zm-0.6,20.1h-0.5v-6.5a3.14,3.14,0,0,0-1.6-1.4,3.14,3.14,0,0,0-1.6,1.4v6.5h-0.8v-0.4l-0.3-.3v-1.8h0.2v-0.7H210v-3.8h0.6v-1H211v-0.6h0.6v-0.9h0.9v-1.5h-0.4v-0.1h0.4v-0.6h0.1v0.6H213v0.1h-0.4v1.5h0.9v0.9h0.6v0.6h0.5v1h0.6v3.8H215v0.8h0.2v1.8l-0.3.3v0.3h-0.1Zm-6.1-21.4v-2.8h-0.1v-0.3l0.2-.5v-1.8h-0.2V307l0.2-.4H209l0.2,0.4v0.1H209v1.8l0.2,0.5v0.3h-0.1v2.8l0.4,0.6v0.7h-1.3v-0.7Zm13.4,11.3h0v2.7H222v-1h-0.4v-0.6H221V324h-0.9v-0.3h2v0.1Zm0.3-10h0v-0.7l0.4-.6v-2.8h-0.1v-0.3l0.2-.5v-1.8h-0.2V307l0.2-.4h0.2l0.2,0.4v0.1h-0.2v1.8l0.2,0.5v0.3h-0.1v2.8l0.4,0.6v0.7h-1.2Zm-12.2,20.5h4.6v0.4h-4.6v-0.4Zm6.9-8.7v1h-0.2v-2.8H219v0.3h-0.9V325h-0.6v0.6h-0.4Zm-1.7-13.2v-2.3h-0.1v-0.8l0.2-.5v-0.4h-6v0.4l0.2,0.5v0.8h-0.1v2.3L210,313v1l-0.1.1v8.8l0.4,0.2v0.3H212v-0.1h-0.4v-0.8H212v-0.6h1v0.6h0.4v0.8H213v0.1h1.7v-0.3l0.4-.2v-8.8L215,314v-1Zm-0.5,9.5h-4.6v-7.8h0.2v-1.2h1.1v-0.8h0.6v-0.4h0.7v0.5h0.7V313h1.1v1.2h0.2v7.7Zm-0.6-8.6h-1.1v-0.8h-0.5l-0.2-.3-0.2.3h-0.5v0.8h-1.1v1.2h-0.2v7h3.8v-7h-0.2v-1.2h0.2Zm-2.5,7.8H211v-3.3h0.8v3.3Zm0-3.7H211V315h0.8v2.4Zm1.2,3.7h-0.8v-3.3H213v3.3Zm0-3.7h-0.8V315H213v2.4Zm1.3,3.7h-0.8v-3.3h0.8v3.3Zm0-6.1v2.4h-0.8V315h0.8Zm-11.2,2.7h2.4v-4.3h-2.4v4.3Zm1.5-3.6h0.6v0.7h-0.6v-0.7Zm0,1.1h0.6v2h-0.6v-2Zm-1.2-1.1H204v0.7h-0.6v-0.7Zm0,1.1H204v2h-0.6v-2Zm-0.5,9.4h2.7v-4.8h-2.7v4.8Zm1.7-3.7h0.6v0.7h-0.6v-0.7Zm0,1.1h0.6v2.2h-0.6V322Zm-1.2-1.1H204v0.7h-0.6v-0.7Zm0,1.1H204v2.2h-0.6V322Zm-3.2-9.9h0.6l0.3,0.6v0.5h-0.2v1l0.2,0.4v0.7H201v1.8l0.3,0.5v0.8l-0.1.1v7l0.3,0.2v0.2H208v-2.1h-0.4v-0.7l0.4-.2v-8.8l-0.1-.1v-1l0.4-.6v-1H200v0.9Zm2.5,0.9h3.2v5.1h-3.2V313Zm-0.2,6.4H206V325h-3.5v-5.6Zm5.7-9.7H208v-1.2h0.4v0.4l-0.2.5v0.3Zm-2.5,21.6v-3.6l-0.1-.1a4.14,4.14,0,0,0-1.6-.4,3.55,3.55,0,0,0-1.6.4l-0.1.1v3.6h-1.1v-5h6.9v4.5h-0.2v0.5h-2.2Zm-3-3.4v3.4h2.7v-3.4a3.07,3.07,0,0,0-1.3-.3A2.21,2.21,0,0,0,202.7,327.91Zm1.1,3.3H203v-2.1h0.8v2.1Zm0-2.4H203v-0.7h0.8v0.7Zm0.4-.7H205v0.7h-0.8v-0.7Zm0,1H205v2.1h-0.8v-2.1Zm32.2-15.3h0v-0.7l0.4-.6v-2.8h-0.1v-0.3l0.2-.5v-1.8h-0.2V307l0.2-.4h0.2l0.2,0.4v0.1h-0.2v1.8l0.2,0.5v0.3h-0.1v2.8l0.4,0.6v0.7h-1.2Zm7.1,0h0v-0.7l0.4-.6v-2.8h-0.1v-0.3l0.2-.5v-1.8h-0.2V307l0.2-.4h0.2l0.2,0.4v0.1h-0.2v1.8l0.2,0.5v0.3h-0.1v2.8l0.4,0.6v0.7h-1.2Zm-14.1,0h0v-0.7l0.4-.6v-2.8h-0.1v-0.3l0.2-.5v-1.8h-0.2V307l0.2-.4h0.2l0.2,0.4v0.1h-0.2v1.8l0.2,0.5v0.3h-0.1v2.8l0.4,0.6v0.7h-1.2Z" transform="translate(-190.6 -229.61)"/><path class="cls-7" d="M259.3,320.81h-0.2v-0.3l0.2-.1h0.2v-0.2l-0.1-.1v-0.3h0.2v-0.2h0.2v0.2H260v0.3l-0.1.1v0.2h0.2l0.2,0.1v0.3h-0.2v0.1H260V321l-0.1.5v3.4h-0.5v-3.4l-0.1-.5v-0.1h-0.1v-0.1h0.1Zm-1.2.8v0.5l-0.2.3v2.5h0.3v-1.7a1.49,1.49,0,0,1,.1-0.6,0.45,0.45,0,0,1,.5,0,0.7,0.7,0,0,1,.1.6v1.7h0.3v-3.4l-0.1-.4a0.33,0.33,0,0,0-.4.4A1.45,1.45,0,0,1,258.1,321.61Zm-11.5,7.2v0.5h22.9l-1.4-.5H246.6Zm8.5-8.2h0v1.3h0.2V325H256v-3.1h0.2v-1.2h0v-0.1h-0.3v-0.3l0.1-.1V320h-0.1v-0.2l-0.1-.3h-0.3l-0.1.3V320h-0.1v0.2l0.1,0.1v0.3h-0.3Zm5.2,1V325h0.3v-1.7a1.49,1.49,0,0,1,.1-0.6,0.45,0.45,0,0,1,.5,0,0.7,0.7,0,0,1,.1.6V325h0.2v-2.5l-0.2-.3v-0.5a2.18,2.18,0,0,1-.6-0.1,0.28,0.28,0,0,0-.3-0.4Zm22.6,4v-0.4a1,1,0,0,0-.9-0.9v-0.2h0.1v-0.2l-0.1-.1v-0.3h-0.2V323a0.44,0.44,0,0,0,.1-0.3,0.2,0.2,0,0,0-.2-0.2c-0.3,0-.2.2-0.2,0.2,0,0.3.1,0.3,0.1,0.3v0.5h-0.2v0.3l-0.1.1v0.2h0.1v0.2a0.88,0.88,0,0,0-.9.9v0.4h2.4Zm-4.8.6-0.2.1v0.4h1.7s-1-.3-1-0.7h-0.5v0.2Zm2.5,0.5v-0.8h2.1v0.8h-2.1Zm1.4-.3a0.2,0.2,0,1,0,.2-0.2A0.22,0.22,0,0,0,282,326.41Zm-0.9,0a0.2,0.2,0,1,0,.2-0.2A0.22,0.22,0,0,0,281.1,326.41Zm-6.8-4.8v0.5l-0.2.3v2.5h1.1v-3.8a0.35,0.35,0,0,0-.3.4A1.45,1.45,0,0,1,274.3,321.61Zm1-1.9,0.2,0.1v5.1h0.2l0.2-.2h0.5v-2.5h0.2v-0.3h-0.2v-2.1s0.1-.3-0.4-0.3v-0.4a0.22,0.22,0,0,0,0-.4v-0.4h-0.2v0.4a0.22,0.22,0,0,0,0,.4v0.4C275.4,319.51,275.3,319.61,275.3,319.71Zm2.3,6.4V327h2v0.3l-0.8.6v0.6h0.3v0.8h-8.5v-2.2h-0.1v-0.2h1.6V326l-0.2-.1h0.2v-0.2h0v0.2h0.7v-0.2h0v0.2h0.7v-0.2h0V326h0.2l-0.2.1V327H276v-0.9l-0.2-.1H276v-0.3h0v0.2h0.7v-0.2h0v0.2h0.7v-0.2h0V326h0.2v0.1Zm-4.8,1.2h-0.3v1h0.3v-1Zm0-.6h-0.3v0.4h0.3v-0.4Zm0.6,0.6h-0.3v1h0.3v-1Zm0-.6h-0.3v0.4h0.3v-0.4Zm3.4,0.6h-0.3v1h0.3v-1Zm0-.6h-0.3v0.4h0.3v-0.4Zm0.6,0.6h-0.3v1h0.3v-1Zm0-.6h-0.3v0.4h0.3v-0.4Zm3.8,1.4-1.8.3v0.8h1.8v-1.1Zm-17.9-7.5h0v1.3h0.2V325h0.7v-3.1h0.2v-1.2h0v-0.1h-0.3v-0.3l0.1-.1V320h-0.1v-0.2l-0.1-.3h-0.2l-0.1.3V320h-0.1v0.2l0.1,0.1v0.3h-0.4Zm5,7.9,1.9,0.7v-1.8h-0.1v-0.5l-1.8-1.5v3.1h0Zm3-7.9h0v1.3h0.2V325h0.7v-3.1h0.2v-1.2h0v-0.1h-0.3v-0.3l0.1-.1V320h-0.1v-0.2l-0.1-.3h-0.2l-0.1.3V320h-0.1v0.2l0.1,0.1v0.3h-0.4Zm-3.9.4h0v0.1l0.1,0.5V325H268v-3.4l0.1-.5V321h0.1v-0.1h0.2v-0.3l-0.2-.1H268v-0.2l0.1-.1v-0.3h-0.2v-0.2h-0.2v0.2h-0.2v0.3l0.1,0.1v0.2h-0.2l-0.2.1v0.3h0.2V321h0Zm-1,.6v0.5l-0.2.3v2.5h0.1v-1.7a1.49,1.49,0,0,1,.1-0.6,0.45,0.45,0,0,1,.5,0,0.7,0.7,0,0,1,.1.6v1.7h0.3v-3.4l-0.1-.4c-0.1,0-.2.1-0.1,0.4A5.64,5.64,0,0,1,266.4,321.61Zm1.9,0V325h0.3v-1.7a1.49,1.49,0,0,1,.1-0.6,0.45,0.45,0,0,1,.5,0,0.7,0.7,0,0,1,.1.6V325h0.1v-2.5l-0.2-.3v-0.5a2.18,2.18,0,0,1-.6-0.1c0.1-.3-0.1-0.3-0.2-0.4Zm-5.8,1.6v1.7h0.1l-0.1-1.7q0.15-.3,0-0.3C262.6,322.91,262.5,323.11,262.5,323.21ZM249.2,325h0.4v-2.6l0.2-.3v-0.6a2.11,2.11,0,0,0-1.4-.4v1.1h-0.2V325h0.2v-1.7a1.49,1.49,0,0,1,.1-0.6,0.45,0.45,0,0,1,.5,0,0.7,0.7,0,0,1,.1.6V325h0.1Zm-2.6-.9h0.2v0.5l-0.2.1v0.2H247v-2.8h-0.2V321h-0.1l-0.1.2v2.9Zm34.6,5.5H241.4v0.7h39.8v-0.7Zm-32.4-6.4v1.7h0.1l-0.1-1.7q0.15-.3,0-0.3C248.9,322.91,248.8,323.11,248.8,323.21Zm-2.2,2.1H268v3.2H246.6v-3.2Zm16.1,2.1h-0.2v0.9h0.2v-0.9Zm4,0h-0.2v0.9h0.2v-0.9Zm-0.6-.3h0.6v-0.4h-0.6v0.4Zm0,1.2h0.2v-0.9h-0.2v0.9Zm-4.1-1.2h0.6v-0.4H262v0.4Zm0,1.2h0.2v-0.9H262v0.9Zm-3.3-.9h-0.2v0.9h0.2v-0.9Zm-0.7-.3h0.6v-0.4H258v0.4Zm0,1.2h0.2v-0.9H258v0.9Zm-3.4-.9h-0.2v0.9h0.2v-0.9Zm-0.6-.3h0.6v-0.4H254v0.4Zm0,1.2h0.2v-0.9H254v0.9Zm-3.3-.9h-0.2v0.9h0.2v-0.9Zm-0.6-.3h0.6v-0.4h-0.6v0.4Zm0,1.2h0.2v-0.9h-0.2v0.9Zm2.7-3.3v-2.1a0.3,0.3,0,0,0,0,.3V325h0Zm-2.3,0v-1.7a0.48,0.48,0,0,0-.1-0.4,0.3,0.3,0,0,0,0,.3l0.1,1.8h0Zm29.9,2-1.3,1v0.2h0.1l1.9-.4h3.3v-0.1L283,327h-2.6Zm-39-6.1v3.2h0.3v-1.7a1.49,1.49,0,0,1,.1-0.6,0.45,0.45,0,0,1,.5,0,0.7,0.7,0,0,1,.1.6v1.7h0.4v-2.7l-0.2-.1v-0.4h-1.2Zm12.2,4.1H254v-1.7a1.49,1.49,0,0,1,.1-0.6,0.45,0.45,0,0,1,.5,0,0.7,0.7,0,0,1,.1.6V325h0.2v-2.8h-0.2v-1.1a2.91,2.91,0,0,0-1.4.4v0.6l0.2,0.3V325h0.1Zm-9.7-.9v-2.8l0.2-.1V321H243v0.2l0.2,0.1v2.8h0.7Zm0.8-1.7v1.7h0.1l-0.1-1.7q0.15-.3,0-0.3v0.3Zm-2.5,1.7V322a0.3,0.3,0,0,0,0,.3v1.8h0Zm0.3,0.3h4.1l-0.2.1v4.7h-4.9v-4.9h0.3l0.7,0.1h0Zm1,4h0.4V326h-0.4v2.4Zm-0.8,0h0.4V326h-0.4v2.4Zm2.4-4.3h0.1v-3l-0.2-.2h-0.7v0.4l-0.2.1v2.7h0.2v-1.7a1.49,1.49,0,0,1,.1-0.6,0.45,0.45,0,0,1,.5,0,0.7,0.7,0,0,1,.1.6ZM261,325v-2.1a0.3,0.3,0,0,0,0,.3V325h0Zm4.1-1.8v1.7h0.1l-0.1-1.7q0.15-.3,0-0.3A0.3,0.3,0,0,0,265.1,323.21Zm1.6,1.8v-1.7a0.48,0.48,0,0,0-.1-0.4,0.3,0.3,0,0,0,0,.3l0.1,1.8h0Zm2.3,0v-2.1a0.3,0.3,0,0,0,0,.3V325h0Zm1.4,1.7h1.4v-0.4l-0.2-.1v-0.5h0.2v-0.3h0.7v0.2h0.1v-0.2h0.7v0.2h0.1v-0.2h0.7v0.3h0.2v0.5l-0.2.1v0.4h1.8v-0.4l-0.2-.1v-0.5h0.2v-0.3h0.7v0.2h0.1v-0.2h0.7v0.2h0.1v-0.2h0.7v0.3h0v-0.6h-1.9l-0.2.2h-7.5Zm3-1.7h0.4v-2.6l0.2-.3v-0.5a2.91,2.91,0,0,0-1.4-.4v1.1h-0.2v2.8h0.2v-1.7a1.49,1.49,0,0,1,.1-0.6,0.45,0.45,0,0,1,.5,0,0.7,0.7,0,0,1,.1.6V325h0.1Zm-19.1-1.8v1.7h0.1l-0.1-1.7q0.15-.3,0-0.3v0.3Zm15.5,1.8h0.4v-1.7a1.49,1.49,0,0,1,.1-0.6,0.45,0.45,0,0,1,.5,0,0.7,0.7,0,0,1,.1.6V325h0.2v-2.8h-0.2v-1.1a2.91,2.91,0,0,0-1.4.4V322l0.2,0.3V325h0.1Zm0.7-1.8v1.7h0.1l-0.1-1.7q0.15-.3,0-0.3v0.3ZM258.6,325v-2.1a0.3,0.3,0,0,0,0,.3V325h0Zm-1.8-1.8v1.7h0.1l-0.1-1.7q0.15-.3,0-0.3v0.3Zm0.4,1.8h0.4v-2.6l0.2-.3v-0.5a4.17,4.17,0,0,0-1.4-.5v1.1h-0.2V325h0.2v-1.7a1.49,1.49,0,0,1,.1-0.6,0.45,0.45,0,0,1,.5,0,0.7,0.7,0,0,1,.1.6Zm8.3,0h0.4v-2.6l0.2-.3v-0.5a2.11,2.11,0,0,0-1.4-.4v1.1h-0.2v2.8h0.2v-1.7a1.49,1.49,0,0,1,.1-0.6,0.45,0.45,0,0,1,.5,0,0.7,0.7,0,0,1,.1.6Zm7.5-1.8v1.7h0.1l-0.1-1.7q0.15-.3,0-0.3v0.3Zm-20.8-1.6V325h0.3v-1.7a1.49,1.49,0,0,1,.1-0.6,0.45,0.45,0,0,1,.5,0,0.7,0.7,0,0,1,.1.6V325h0.1v-2.5l-0.2-.3v-0.5a1.45,1.45,0,0,1-.6-0.1c0.1-.2-0.1-0.3-0.2-0.4Zm9.4-.1V322l0.2,0.3v2.6h0.4v-1.7a1.49,1.49,0,0,1,.1-0.6,0.45,0.45,0,0,1,.5,0,0.7,0.7,0,0,1,.1.6v1.7h0.2v-2.8h-0.2V321A2.69,2.69,0,0,0,261.6,321.51Zm-65.3,7v-0.6l-0.8-.6V327h2v-0.9l-0.2-.1h0.2v-0.3h0v0.2h0.7v-0.2h0v0.2h0.7v-0.2h0V326h0.2l-0.2.1V327h2.5v-0.9l-0.2-.1h0.2v-0.3h0v0.2h0.7v-0.2h0v0.2h0.7v-0.2h0V326H203l-0.2.1V327h1.8v0.2h-0.1v2.2H196v-0.8h0.3v-0.1Zm6.1-1.4h0.3v-0.4h-0.3v0.4Zm0,1.2h0.3v-1h-0.3v1Zm-0.7-1.2H202v-0.4h-0.3v0.4Zm0,1.2H202v-1h-0.3v1Zm-3.4-1.2h0.3v-0.4h-0.3v0.4Zm0,1.2h0.3v-1h-0.3v1Zm-0.6-1.2H198v-0.4h-0.3v0.4Zm0,1.2H198v-1h-0.3v1Zm32.2-7.8h0.2v0.1h3.6v-0.2l-0.2-.1v-0.6h0.2v-0.5h-0.4v0.3h-0.1v0.3c-0.7-.1-0.5.3-0.5,0.3,0,0.5-.7.2-0.7,0.2a3.13,3.13,0,0,0-1.2-.7h-0.9v0.9Zm-5.9,1.1V325h0.3v-1.7a1.49,1.49,0,0,1,.1-0.6,0.45,0.45,0,0,1,.5,0,0.7,0.7,0,0,1,.1.6V325h0.1v-2.5l-0.2-.3v-0.5a1.45,1.45,0,0,1-.6-0.1c0.1-.3-0.1-0.3-0.2-0.4Zm-0.9-.6h0l0.1,0.1,0.1,0.5V325h0.5v-3.4l0.1-.5V321H224v-0.1h0.2v-0.3l-0.2-.1h-0.2v-0.2l0.1-.1v-0.3h-0.3v-0.2h-0.2v0.2h-0.2v0.3l0.1,0.1v0.2h-0.2l-0.2.1v0.3h0.2V321Zm5.4-.3,0.3,0.4v3h0.8V321l0.2-.2h-0.2v-2h-0.2v-0.1l-0.1-.2v-0.2a0.88,0.88,0,0,0,.2-0.6h0.1v-0.3h-0.2v-0.2h-0.1V317h-0.2v0.2H229v0.2h-0.2v0.3h0.1a0.88,0.88,0,0,0,.2.6v0.2l-0.1.2v0.2h-0.2v0.2h-0.1v1.6h-0.2Zm-1.6-.1h0v1.3h0.2V325h0.7v-3.1H228v-1.1h0v-0.2h-0.3v-0.3l0.1-.1V320h-0.1v-0.2l-0.1-.3h-0.2l-0.1.3V320h-0.1v0.2l0.1,0.1v0.3h-0.4Zm-11,1V325h0.3v-1.7a1.49,1.49,0,0,1,.1-0.6,0.45,0.45,0,0,1,.5,0,0.7,0.7,0,0,1,.1.6V325h0.3v-2.5l-0.2-.3v-0.5a2.18,2.18,0,0,1-.6-0.1c0.1-.4-0.2-0.4-0.4-0.4Zm6.1,0v0.5l-0.2.3v2.5h0.1v-1.7a1.49,1.49,0,0,1,.1-0.6,0.45,0.45,0,0,1,.5,0,0.7,0.7,0,0,1,.1.6v1.7h0.3v-3.4l-0.1-.4c-0.1,0-.2.1-0.2,0.4A1,1,0,0,1,222,321.61Zm-7-.6h0l0.1,0.1,0.1,0.5V325h0.4v-3.4l0.1-.5V321h0.1v-0.1H216v-0.3l-0.2-.1h-0.2v-0.2l0.1-.1v-0.3h-0.2v-0.2h-0.2v0.2h-0.2v0.3l0.1,0.1v0.2H215l-0.2.1v0.3H215V321Zm4-.4h0v1.3h0.2V325h0.7v-3.1h0.2v-1.2h0v-0.1h-0.3v-0.3l0.1-.1V320h-0.1v-0.2l-0.1-.3h-0.2l-0.1.3V320h-0.1v0.2l0.1,0.1v0.3H219Zm14.3,3.5h0.3v-3.2h-1.2v0.4l-0.2.1v2.7h0.4v-1.7a1.49,1.49,0,0,1,.1-0.6,0.45,0.45,0,0,1,.5,0,0.7,0.7,0,0,1,.1.6v1.7Zm-3.3-1.7a1.49,1.49,0,0,1,.1-0.6,0.45,0.45,0,0,1,.5,0,0.7,0.7,0,0,1,.1.6v1.7h0.2v-2.7l-0.2-.1v-0.4H230l-0.2.2v3h0.1v-1.7H230Zm0.3,0v1.7h0.1l-0.1-1.7q0.15-.3,0-0.3C230.4,322.11,230.3,322.31,230.3,322.41Zm-25.4,5.1h-0.1v1.8l1.9-.7v-3.1l-1.8,1.5v0.5Zm28-5.1v1.7H233l-0.1-1.7q0.15-.3,0-0.3C233,322.11,232.9,322.31,232.9,322.41Zm-27.3,6.9h22.9v-0.5H207Zm8.2-7.7v0.5l-0.2.3v2.5h0.2v-1.7a1.49,1.49,0,0,1,.1-0.6,0.45,0.45,0,0,1,.5,0,0.7,0.7,0,0,1,.1.6v1.7h0.3v-3.4l-0.1-.4a0.28,0.28,0,0,0-.3.4A2.18,2.18,0,0,1,213.8,321.61Zm15,2.8h4.9v4.9h-4.9v-4.7l-0.2-.1h0.2v-0.1Zm3.2,4h0.4V326H232v2.4Zm-0.7,0h0.4V326h-0.4v2.4Zm-2.8-3.7-0.2-.1v-0.5h0.2v-2.9l-0.1-.2h-0.1v1.1h-0.2v2.8h0.4v-0.2Zm3.5-.6v-2.8l0.2-.1V321h-1.1v0.2l0.2,0.1v2.8H232Zm3.9-1.4h3.4l0.2-.5h0.1v-0.1h-1v-0.4h-0.3v-0.3H238V321h-0.4v-0.5l0.1-.1v-0.1h-0.3v0.1l0.1,0.1V321h-0.3v0.4h-0.3v0.3h-0.3v0.4h-1v0.1h0.1Zm-2.7,13.2-0.1.4h0.6v-5.6H193.9v5.6h0.6l-0.1-.4h-0.2v-2l0.2-.2v-0.6s0.1-1.1,1.8-1.7c1.7,0.6,1.8,1.7,1.8,1.7v0.6l0.2,0.2v2H198l-0.1.4H199l-0.1-.4h-0.3v-2l0.2-.2v-0.6s0.1-1.1,1.8-1.7c1.7,0.6,1.8,1.7,1.8,1.7v0.6l0.2,0.2v2h-0.2l-0.1.4h1.1l-0.1-.4h-0.2v-2l0.2-.2v-0.6s0.1-1.1,1.8-1.7c1.7,0.6,1.8,1.7,1.8,1.7v0.6l0.2,0.2v2h-0.2l-0.1.4h1.1l-0.1-.4h-0.2v-2l0.2-.2v-0.6s0.1-1.1,1.8-1.7c1.7,0.6,1.8,1.7,1.8,1.7v0.6l0.2,0.2v2h-0.2l-0.1.4h1.1l-0.1-.4h-0.2v-2l0.2-.2v-0.6s0.1-1.1,1.8-1.7c1.7,0.6,1.8,1.7,1.8,1.7v0.6l0.2,0.2v2h-0.5l-0.1.4h1l-0.1-.4h-0.2v-2l0.2-.2v-0.6s0.1-1.1,1.8-1.7c1.7,0.6,1.8,1.7,1.8,1.7v0.6l0.2,0.2v2H220l-0.1.4H221l-0.1-.4h-0.2v-2l0.2-.2v-0.6s0.1-1.1,1.8-1.7c1.7,0.6,1.8,1.7,1.8,1.7v0.6l0.2,0.2v2h-0.2l-0.1.4h1.1l-0.1-.4h-0.2v-2l0.2-.2v-0.6s0.1-1.1,1.8-1.7c1.7,0.6,1.8,1.7,1.8,1.7v0.6l0.2,0.2v2H229l-0.1.4H230l-0.1-.4h-0.2v-2l0.2-.2v-0.6s0.1-1.1,1.8-1.7c1.7,0.6,1.8,1.7,1.8,1.7v0.6l0.2,0.2v2h-0.5Zm2.7-8.2V323h3.3v4.7h-3.3Zm2.3-3h0.6v-1h-0.6v1Zm0,2.9h0.6V325h-0.6v2.6Zm-1-2.9h0.6v-1h-0.6v1Zm0,2.9h0.6V325h-0.6v2.6Zm-1-2.9h0.6v-1h-0.6v1Zm0,2.9h0.6V325h-0.6v2.6Zm-42.6.5h-2.9v8.2h2.9v-8.2Zm87.9,0v8.2h3v-8.2h-3Zm-0.7,7.8-0.1.4h0.6v-5.6H241.5v5.6h0.6l-0.1-.4h-0.2v-2l0.2-.2v-0.6s0.1-1.1,1.8-1.7c1.7,0.6,1.8,1.7,1.8,1.7v0.6l0.2,0.2v2h-0.2l-0.1.4h1.1l-0.1-.4h-0.2v-2l0.2-.2v-0.6s0.1-1.1,1.8-1.7c1.7,0.6,1.8,1.7,1.8,1.7v0.6l0.2,0.2v2h-0.2l-0.1.4h1.1l-0.1-.4h-0.2v-2l0.2-.2v-0.6s0.1-1.1,1.8-1.7c1.7,0.6,1.8,1.7,1.8,1.7v0.6l0.2,0.2v2h-0.2l-0.1.4h1.1l-0.1-.4h-0.2v-2l0.2-.2v-0.6s0.1-1.1,1.8-1.7c1.7,0.6,1.8,1.7,1.8,1.7v0.6l0.2,0.2v2h-0.2l-0.1.4h1l-0.1-.4h-0.2v-2l0.2-.2v-0.6s0.1-1.1,1.8-1.7c1.7,0.6,1.8,1.7,1.8,1.7v0.6l0.2,0.2v2h-0.2l-0.1.4h1.1l-0.1-.4h-0.2v-2l0.2-.2v-0.6s0.1-1.1,1.8-1.7c1.7,0.6,1.8,1.7,1.8,1.7v0.6l0.2,0.2v2H268l-0.1.4H269l-0.1-.4h-0.2v-2l0.2-.2v-0.6s0.1-1.1,1.8-1.7c1.7,0.6,1.8,1.7,1.8,1.7v0.6l0.2,0.2v2h-0.2l-0.1.4h1.1l-0.1-.4h-0.8v-2l0.2-.2v-0.6s0.1-1.1,1.8-1.7c1.7,0.6,1.8,1.7,1.8,1.7v0.6l0.2,0.2v2h-0.2l-0.1.4h1.1l-0.1-.4h-0.2v-2l0.2-.2v-0.6s0.1-1.1,1.8-1.7c1.7,0.6,1.8,1.7,1.8,1.7v0.6l0.2,0.2v2h-0.3ZM239.9,330h0v1.1H240V328h-4.9v3.1h0.1V330a0.67,0.67,0,0,1,.7-0.6,0.75,0.75,0,0,1,.7.6h0v1.1h0.2V330a0.62,0.62,0,0,1,.2-0.4,1.07,1.07,0,0,1,.6-0.2,0.85,0.85,0,0,1,.6.2,0.62,0.62,0,0,1,.2.4v1.1h0.2V330a0.67,0.67,0,0,1,.7-0.6A0.74,0.74,0,0,1,239.9,330Zm-46-2.2,1.9,0.4h0.1V328l-1.3-1h-2.7l-1.3.7v0.1h3.3Zm45.6,8.1V334l-0.2-.1v-0.6s-0.1-1.1-1.8-1.6c-1.7.6-1.8,1.6-1.8,1.6v0.6l-0.2.1v1.9h0.2l0.1,0.4h-1.9v-16.1l-0.2-.1V320h7.5v0.1l-0.2.1v16.1h-1.9l0.1-.4h0.3Zm0-5.9v1.4h0.8v-3.7h-0.8v-4.8l0.2-.4h0.2v-0.7h-1v-0.4h-0.3v-0.3h-0.3v-0.4H238l0.1-.1v-0.5h-0.9v0.5l0.1,0.1H237v0.4h-0.4v0.3h-0.3v0.4h-1v0.7h0.2l0.2,0.4v4.8h-0.8v3.7h0.8V330a0.45,0.45,0,0,1,.4-0.3,0.35,0.35,0,0,1,.4.3v1.4h0.8V330a0.31,0.31,0,0,1,.1-0.2,0.85,0.85,0,0,1,.8,0,0.31,0.31,0,0,1,.1.2v1.4h0.8V330a0.45,0.45,0,0,1,.4-0.3V330Zm-42.3-3.3v-0.4l-0.2-.1V326h-0.5a2,2,0,0,1-1,.7h1.7Zm8.7-5.1v0.5l-0.2.3v2.5h0.1v-1.7a1.49,1.49,0,0,1,.1-0.6,0.45,0.45,0,0,1,.5,0,0.7,0.7,0,0,1,.1.6v1.7h0.3v-3.4l-0.1-.4a0.26,0.26,0,0,0-.2.4A2.18,2.18,0,0,1,205.9,321.61Zm1-.6h0l0.1,0.1,0.1,0.5V325h0.5v-3.4l0.1-.5V321h0v-0.1h0.2v-0.3l-0.2-.1h-0.2v-0.2l0.1-.1v-0.3h-0.2v-0.2h-0.2v0.2H207v0.3l0.1,0.1v0.2h-0.2l-0.2.1v0.3h0.2V321Zm-4.1-.4h0v1.3H203V325h0.7v-3.1h0.2v-1.2h0v-0.1h-0.3v-0.3l0.1-.1V320h-0.1v-0.2l-0.1-.3h-0.2l-0.1.3V320h-0.1v0.2l0.1,0.1v0.3h-0.4Zm5.1,1V325h0.3v-1.7a1.49,1.49,0,0,1,.1-0.6,0.45,0.45,0,0,1,.5,0,0.7,0.7,0,0,1,.1.6V325H209v-2.5l-0.2-.3v-0.5a2.18,2.18,0,0,1-.6-0.1,0.3,0.3,0,0,0-.1-0.4Zm2.8-1h0v1.3h0.2V325h0.7v-3.1h0.2v-1.2h0v-0.1h-0.3v-0.3l0.1-.1V320h-0.1v-0.2l-0.1-.3h-0.2l-0.1.3V320H211v0.2l0.1,0.1v0.3h-0.4Zm-16,5v-0.4a1,1,0,0,0-.9-0.9v-0.2h0.1v-0.2l-0.1-.1v-0.3h-0.2V323a0.44,0.44,0,0,0,.1-0.3,0.2,0.2,0,0,0-.2-0.2c-0.3,0-.2.2-0.2,0.2,0,0.3.1,0.3,0.1,0.3v0.5h-0.2v0.3l-0.1.1v0.2h0.1v0.2a0.88,0.88,0,0,0-.9.9v0.4h2.4Zm4.1-.8h0.5l0.2,0.2h0.1v-5.1l0.2-.1c0-.1-0.1-0.2-0.4-0.2v-0.4a0.22,0.22,0,0,0,0-.4v-0.4h-0.2v0.4a0.22,0.22,0,0,0,0,.4v0.4c-0.5,0-.4.3-0.4,0.3V322h-0.2v0.3h0.2v2.5Zm1.1-3.6V325H201v-2.5l-0.2-.3v-0.5a2.18,2.18,0,0,1-.6-0.1C200.3,321.21,200.1,321.21,199.9,321.21Zm13,3.8h0.4v-2.6l0.2-.3v-0.5a4.17,4.17,0,0,0-1.4-.5v1.1h-0.2V325h0.2v-1.7a1.49,1.49,0,0,1,.1-0.6,0.45,0.45,0,0,1,.5,0,0.7,0.7,0,0,1,.1.6V325h0.1Zm-19,5.4h39.8v-0.7H193.9v0.7Zm41.9-13-0.1-.1V317h-0.8v2.7h0.9v-2.3Zm-1.8-.8v3h0.6v-3h0.2v-0.2l-0.2-.2V316h-0.2v-0.4a0.42,0.42,0,0,0,0-.6v-0.3H234V315a0.42,0.42,0,0,0,0,.6V316h-0.2v0.2l-0.2.2h0v0.2H234Zm2.6,3.1v-2.4l0.1-.1V317H236v0.2l0.1,0.1v2.4h0.5Zm-34.6,3.5v1.7h0.1l-0.1-1.7q0.15-.3,0-0.3v0.3Zm-0.7,1.8h0.4v-1.7a1.49,1.49,0,0,1,.1-0.6,0.45,0.45,0,0,1,.5,0,0.7,0.7,0,0,1,.1.6V325h0.2v-2.8h-0.2v-1.1a2.91,2.91,0,0,0-1.4.4V322l0.2,0.3V325h0.1Zm-4.1.4h0.7v0.2H198v-0.2h0.6v0.2h0.1v-0.2h0.7v0.3h0.2v0.5l-0.2.1v0.4h1.8v-0.4l-0.2-.1v-0.5h0.2v-0.3h0.7v0.2H202v-0.2h0.6v0.2h0.1v-0.2h0.7v0.3h0.2v0.5l-0.2.1v0.4h1.4l1.8-1.4h-7.2l-0.2-.2h-1.9v0.6h0v-0.3h-0.1Zm-2.7,1.3h-2.1v-0.8h2.1v0.8Zm-1.3-.3a0.2,0.2,0,1,0-.2.2A0.22,0.22,0,0,0,193.2,326.41Zm0.8,0a0.2,0.2,0,1,0-.2.2A0.22,0.22,0,0,0,194,326.41Zm43-9.5v0.3l-0.1.1v2.3h1.3v-2.3l-0.1-.1v-0.3H237Zm-43.1,11.2v1.2h1.8v-0.8Zm51.9-9.9v0.2l-0.1.2v0.2h-0.2v2h-0.2l0.2,0.2v3.1h0.8v-3l0.3-.4h-0.1v-1.6h-0.1v-0.2h-0.2v-0.2l-0.1-.2v-0.2a0.88,0.88,0,0,0,.2-0.6h0.1v-0.3h-0.2v-0.2h-0.1V317h-0.2v0.2h-0.1v0.2h-0.3v0.3h0.1A0.77,0.77,0,0,0,245.8,318.21Zm-4.4,1v0.5h0.2v0.6l-0.2.1v0.2H245v-0.1h0.2v-0.8h-0.9a3.13,3.13,0,0,0-1.2.7s-0.7.3-.7-0.2c0,0,.2-0.4-0.5-0.3v-0.3h-0.1v-0.3h-0.4v-0.1Zm-15.2,4v1.7h0.1l-0.1-1.7q0.15-.3,0-0.3v0.3Zm24-1.6v0.5l-0.2.3v2.5h0.1v-1.7a1.49,1.49,0,0,1,.1-0.6,0.45,0.45,0,0,1,.5,0,0.7,0.7,0,0,1,.1.6v1.7h0.3v-3.4l-0.1-.4c-0.1,0-.2.1-0.2,0.4A2.18,2.18,0,0,1,250.2,321.61Zm-11.2-1.9v-2.4l0.1-.1V317h-0.7v0.2l0.1,0.1v2.4H239Zm-3.9-3.1H240v-0.3a0.85,0.85,0,0,1-.3-0.3,0.63,0.63,0,0,0-.6-0.1v-0.4h-0.5l-0.5-.5v-0.5a0.78,0.78,0,0,0-.3-0.9,1,1,0,0,1-.1-0.4v-0.6s0.4-.7-0.2-0.7-0.2.7-.2,0.7v0.6a0.38,0.38,0,0,1-.1.4,0.78,0.78,0,0,0-.3.9V315l-0.5.5H236v0.4a0.63,0.63,0,0,0-.6.1,0.85,0.85,0,0,1-.3.3v0.3Zm4.3,0.3v0.3l-0.1.1v2.3h0.9v-2.7h-0.8Zm0.9-.3h0.2v3h0.6v-3h0.4v-0.2h-0.2l-0.2-.2V316h-0.2v-0.4a0.42,0.42,0,0,0,0-.6v-0.3h-0.4V315a0.42,0.42,0,0,0,0,.6V316h-0.2v0.2l-0.2.2v0.2h0.2Zm6.8,5.3h0.2V325H248v-3.1h0.2v-1.2h0v-0.1h-0.3v-0.3l0.1-.1V320h-0.1v-0.2l-0.1-.3h-0.3l-0.1.3V320h-0.1v0.2l0.1,0.1v0.3h-0.3v0.2h0v1.1Zm-29.8-.4V322l0.2,0.3v2.6h0.4v-1.7a1.49,1.49,0,0,1,.1-0.6,0.45,0.45,0,0,1,.5,0,0.7,0.7,0,0,1,.1.6v1.7h0.2v-2.8h-0.2V321A2.69,2.69,0,0,0,217.3,321.51Zm0.9,1.7v1.7h0.1l-0.1-1.7q0.15-.3,0-0.3v0.3Zm2.9,1.8h0.4v-2.6l0.2-.3v-0.5a2.11,2.11,0,0,0-1.4-.4v1.1h-0.2v2.8h0.2v-1.7a1.49,1.49,0,0,1,.1-0.6,0.45,0.45,0,0,1,.5,0,0.7,0.7,0,0,1,.1.6Zm-4.5,0v-1.7a0.48,0.48,0,0,0-.1-0.4,0.3,0.3,0,0,0,0,.3l0.1,1.8h0Zm8.8,0h0.4v-1.7a1.49,1.49,0,0,1,.1-0.6,0.45,0.45,0,0,1,.5,0,0.7,0.7,0,0,1,.1.6V325h0.2v-2.8h-0.1v-1.1a2.91,2.91,0,0,0-1.4.4v0.6l0.2,0.3V325Zm-0.7,0v-2.1a0.3,0.3,0,0,0,0,.3V325h0Zm-4-1.8v1.7h0.1l-0.1-1.7q0.15-.3,0-0.3v0.3Zm-6.5,1.8v-2.1a0.3,0.3,0,0,0,0,.3V325h0Zm8.2,0v-2.1a0.3,0.3,0,0,0,0,.3V325h0Zm-9.9-1.8v1.7h0.1l-0.1-1.7q0.15-.3,0-0.3v0.3Zm-6.3,1.8v-2.1a0.3,0.3,0,0,0,0,.3V325h0Zm0.9,0.3h21.3v3.2H207.1v-3.2Zm18,2.1h-0.2v0.9h0.2v-0.9Zm-0.7-.3H225v-0.4h-0.6v0.4Zm0,1.2h0.2v-0.9h-0.2v0.9Zm-3.3-.9h-0.2v0.9h0.2v-0.9Zm-0.6-.3h0.6v-0.4h-0.6v0.4Zm0,1.2h0.2v-0.9h-0.2v0.9Zm-3.4-.9h-0.2v0.9h0.2v-0.9Zm-0.6-.3h0.6v-0.4h-0.6v0.4Zm0,1.2h0.2v-0.9h-0.2v0.9Zm-7.5-.9h-0.2v0.9H209v-0.9Zm4.1,0h-0.2v0.9h0.2v-0.9Zm-0.7-.3H213v-0.4h-0.6v0.4Zm0,1.2h0.2v-0.9h-0.2v0.9Zm-4-1.2H209v-0.4h-0.6v0.4Zm0,1.2h0.2v-0.9h-0.2v0.9Zm-3.5-3.3h0.4v-2.6l0.2-.3v-0.5a2.91,2.91,0,0,0-1.4-.4v1.1h-0.2v2.8h0.2v-1.7a1.49,1.49,0,0,1,.1-0.6,0.45,0.45,0,0,1,.5,0,0.7,0.7,0,0,1,.1.6Zm3.6,0v-2.1a0.3,0.3,0,0,0,0,.3V325h0Zm-4-1.8v1.7h0.1l-0.1-1.7q0.15-.3,0-0.3v0.3Zm46.7-2.2h0l0.1,0.1,0.1,0.5V325h0.5v-3.4l0.1-.5V321h0.1v-0.1h0.2v-0.3l-0.2-.1h-0.2v-0.2l0.1-.1v-0.3h-0.2v-0.2h-0.3v0.2h-0.2v0.3l0.1,0.1v0.2h-0.2l-0.2.1v0.3h0.2V321Zm-41.2,2.2v1.7h0.1l-0.1-1.7q0.15-.3,0-0.3A0.3,0.3,0,0,0,210,323.21Zm-0.8,1.8h0.4v-1.7a1.49,1.49,0,0,1,.1-0.6,0.45,0.45,0,0,1,.5,0,0.7,0.7,0,0,1,.1.6V325h0.3v-2.8h-0.2v-1.1a2.91,2.91,0,0,0-1.4.4V322l0.2,0.3V325Z" transform="translate(-190.6 -229.61)"/><path class="cls-8" d="M328.5,309.31h4.6l3.1,0.4h0.9v0.4h0.3v-0.2l0.2-.1h0.1l0.1-.3a1.27,1.27,0,0,1-.2-0.6s-0.1-.2,0-0.2-0.1-.2.2-0.3v-0.2a0.49,0.49,0,0,1,.1-0.3,0.22,0.22,0,0,1,.1.3v0.2c0.3,0.1.2,0.3,0.2,0.3s0,0.2,0,.2a2,2,0,0,1-.2.6l0.1,0.3h0.1l0.2,0.1v0.2h0.7l-0.2.3h-8C330.6,309.91,329.7,309.61,328.5,309.31Zm-24.4,16v-0.2h-0.7v-0.4h0a0.54,0.54,0,0,0-.3-0.4v-9.2a0.76,0.76,0,0,0,.2-0.5v-0.2h6.1v0.2a2.57,2.57,0,0,0,.2.5v9.2a1,1,0,0,0-.3.4V325h-0.7v0.2h-4.5v0.1Zm3.6-7.3h0.7a1.91,1.91,0,0,0-.7-1.5V318Zm0,2.6h0.7v-1.5h-0.7v1.5Zm0,3.2h0.7v-2.9h-0.7v2.9Zm-1.9-5.8h1.5v-1.7a1.7,1.7,0,0,0-1.6,0V318h0.1Zm0,2.6h1.5v-1.5h-1.6v1.5h0.1Zm0,3.2h1.5v-2.9h-1.6v2.9h0.1Zm-1.1-5.8h0.7v-1.5A2.17,2.17,0,0,0,304.7,318Zm0,2.6h0.7v-1.5h-0.7v1.5Zm0,3.2h0.7v-2.9h-0.7v2.9Zm-1.3,1.7h0.2l0.2-.2h-2.7l0.2,0.2h0.2l0.3,0.5v7.9l-0.1.2v0.4h1.7v-0.4l-0.1-.2V326Zm28.8-12.6s-0.6-1.2-4-1.2h-0.3l-0.8.8v4.6h0.5v0.5l-0.5.5v6.8h0.6v0.5h0.5v-7.7h0c0-.1.6-2.3,2-2h0a1.7,1.7,0,0,1,.8,1.1v-1.1a7.72,7.72,0,0,0,.1-1v-0.1h0.1a0.52,0.52,0,0,0,.4-0.2h0A2.53,2.53,0,0,0,332.2,312.91Zm7,1.5h-7.3a0.1,0.1,0,0,1-.1.1,0.76,0.76,0,0,1-.4.2,7.75,7.75,0,0,1-.1.9v3.5l-0.1.1h7v-3.4l0.2-.1v-0.1h-0.2v-0.5Zm-28.1-6.3v2.5h1.3v0.3h4.2v-0.2h0.8v-0.4h0.3v-2.2l-0.3-.3h-0.8v-0.1h0a2.44,2.44,0,0,0-4.2,0h-0.2v0.2h-0.7Zm10.5-4.6v-0.1a0.75,0.75,0,0,1,.4-0.7,1.16,1.16,0,0,1,.5-0.7h0a0.45,0.45,0,0,1,.3.4h0l-0.4.8h0l-0.1.1h0v0.1a1.1,1.1,0,0,0,.3.6,1.69,1.69,0,0,1,.2-0.5,0.48,0.48,0,0,1,.4-0.1h0a0.1,0.1,0,0,1,.1.1h2.2v-0.3a3,3,0,0,0-2.3-2.4h-0.4v-0.3l-0.2-.4v-0.2a1.54,1.54,0,0,0,.3-0.7,0.37,0.37,0,0,0-.3-0.4h-0.1v-0.1a0.3,0.3,0,0,0,0-.3v-0.8l-0.1-.2h0.2l-0.1.2v0.8a0.25,0.25,0,0,0,0,.3v0.1h-0.1a0.37,0.37,0,0,0-.3.4,1.1,1.1,0,0,0,.3.7v0.2l-0.2.4v0.3h-0.4a2.84,2.84,0,0,0-2.3,2.4v0.3h2.1Zm-3.5,4.6v2.3h0.3a1,1,0,0,1,.2-0.7c0-.3.1-0.8,0.1-1v-0.3h0a0.48,0.48,0,0,1,0-.4,1.38,1.38,0,0,1,.4-0.3,2.93,2.93,0,0,0,.8-0.4h0a0.7,0.7,0,0,1,.4-0.2l0.1-.2a0.85,0.85,0,0,1,.2-0.6,0.52,0.52,0,0,1,.4-0.2h0a0.37,0.37,0,0,1,.3.1,0.92,0.92,0,0,1,.1.6,0.1,0.1,0,0,0,.1-0.1c0-.1.1-0.1,0.1-0.2h0v-0.1a1.33,1.33,0,0,1,.2-1.3,1.52,1.52,0,0,1,.4-0.6h-4l0.3,0.7h0.2v2.1h-1v0.1Zm-8.5-.6v0.2l0.5,0.3v2.7h0.7V308l0.5-.3v-0.2H311v-0.1a0.88,0.88,0,0,0,.2-0.6,4.07,4.07,0,0,1-.2-1,0.49,0.49,0,0,1,.1-0.3,0.79,0.79,0,0,0-.1-0.8v-0.4s0-.2-0.3-0.2a0.44,0.44,0,0,1-.1-0.3s0-.5-0.4-0.3a0.3,0.3,0,0,0,0,.5s0.2,0.2-.1.2c0,0-.4-0.1-0.3.5l-0.1.2a0.76,0.76,0,0,0,.1.8v0.2a2.63,2.63,0,0,0,0,1.3,0.35,0.35,0,0,0,.2.1v0.1h-0.4v0.1Zm-21.2,5.9H293v-1.5l0.6-.4h-7.5l0.6,0.4v1.5h1.7Zm-0.1,11.3a0.43,0.43,0,0,0-.3-0.3h-0.1v-9.8H288a0.34,0.34,0,0,0,.2-0.3v-0.6h-1.5v0.6a0.53,0.53,0,0,0,.2.3H287v9.8h-0.1l-0.3.3v0.2h1.6v-0.2h0.1Zm0.9-16.8v0.9h-0.1c-1.1,0-2.6,1.8-2.6,1.8v0.1h-0.6l0.2,0.5h8.1l0.2-.5h-0.8v-0.1s-1.5-1.8-2.6-1.8h-0.1v-0.9h-1.7Zm41.6,11.6v6.3c-0.6-.1-1.5-0.2-2.3-0.3v-7.8c0.1-.2.6-2,1.6-1.8a2.94,2.94,0,0,1,.9,2.3h0V319Zm-1.7,1.6h-0.4v3l0.4,0.1v-3.1Zm0-1.7a2.27,2.27,0,0,1-.4-0.1v1.5h0.4v-1.4Zm0-2.4a2.16,2.16,0,0,0-.4,1.2v0.1a0.6,0.6,0,0,1,.4.1V317Zm1,4.4c-0.2-.1-0.4-0.1-0.6-0.2v3.1l0.6,0.1v-3Zm0-1.7c-0.2-.1-0.4-0.1-0.6-0.2v1.4a1.42,1.42,0,0,1,.6.2v-1.4Zm0-2.7c-0.1-.1-0.5-0.4-0.5-0.4h-0.1v1.7c0.2,0.1.4,0.1,0.6,0.2V317Zm-34.1,8.3v-0.2h-0.4a1.17,1.17,0,0,0-.2-0.7v-9.3a0.76,0.76,0,0,0,.2-0.4v-0.3h5.9v0.2a2.57,2.57,0,0,0,.2.5v9.2a1,1,0,0,0-.3.4V325h-0.7v0.2H296v0.1Zm3.8-7.3h0.7a1.91,1.91,0,0,0-.7-1.5V318Zm0,2.6h0.7v-1.5h-0.7v1.5Zm0,3.2h0.7v-2.9h-0.7v2.9Zm-1.9-5.8h1.5v-1.7a1.7,1.7,0,0,0-1.6,0V318h0.1Zm0,2.6h1.5v-1.5h-1.6v1.5h0.1Zm0,3.2h1.5v-2.9h-1.6v2.9h0.1Zm-1.1-5.8h0.7v-1.5A2.17,2.17,0,0,0,296.8,318Zm0,2.6h0.7v-1.5h-0.7v1.5Zm0,3.2h0.7v-2.9h-0.7v2.9Zm-14.6-13.2c-0.1.1-.1,0.2,0,0.2h0v0.9a7.8,7.8,0,0,1,2.4-.3v-0.2l-0.5-.1v-0.5h0.7v-1C282.9,309.91,282.4,310.31,282.2,310.61Zm13.5,14.8v-0.1h-1.3v0.4l-0.5.2v6.9l0.3,0.2v1.4h1.4V334l-0.2-.2v-8Zm-9.4-20.1v2a0.85,0.85,0,0,0,.6-0.3,0.86,0.86,0,0,1-.3-0.6,2.25,2.25,0,0,1,.5-0.5h0a1.06,1.06,0,0,1,.5.2,0.76,0.76,0,0,1,.2.4,0.75,0.75,0,0,1,.5.1l0.4-.4v-0.1l-0.2.1h0a0.35,0.35,0,0,1-.2-0.1,0.19,0.19,0,0,1,.1-0.3,3.26,3.26,0,0,1,1.1-1.2h-3.6l0.3,0.7h0.1Zm7.1,19.4a0.43,0.43,0,0,0-.3-0.3H293v-9.8h0.1a0.34,0.34,0,0,0,.2-0.3v-0.6h-1.5v0.6a0.53,0.53,0,0,0,.2.3h0.1v9.8H292l-0.3.3v0.2h1.6v-0.2h0.1Zm38.2,1.8a1,1,0,0,0-.3.4v6.2l0.2,0.3v1.1h7.4v-1l-0.3-.2v-6.2l0.3-.2a0.43,0.43,0,0,1,.3-0.3v-0.1h-7.6Zm-30.3,8V334l0.1-.2v-7.7l-0.2-.3H301l-0.2-.3h-4.9l-0.4.4v7.8l0.2,0.2v0.5h1.4v-5l0.2-.2V329h-0.2v-0.2a1.52,1.52,0,0,1,3,0V329h-0.2v0.2l0.2,0.2v5h1.2v0.1Zm15.9,0V334l0.2-.2V326l-0.4-.4h-4.9l-0.2.3h-0.2l-0.2.3v7.7l0.1,0.2v0.5h1.2v-5l0.2-.2v-0.2h-0.2V329a1.52,1.52,0,0,1,3,0v0.2h-0.2v0.2l0.2,0.2v5h1.4v-0.1Zm-7.8,0V334l0.1-.2v-7.7l-0.2-.3h-0.2l-0.2-.3H304l-0.2.3h-0.2l-0.2.3v7.7l0.1,0.2v0.5H305v-5l0.2-.2v-0.2H305v-0.2a1.52,1.52,0,0,1,3,0v0.2h-0.2v0.2l0.2,0.2v5h1.4Zm23-21.1c-0.1.2-.2,0.5-0.3,0.7h7.4l0.4-.5v-0.1h-7.5v-0.1Zm6,12.6v-0.2h-0.1v-6l0.3-.3h-7.5v6.3a1.54,1.54,0,0,1,.7.3v0.1h6.8V326h-0.2Zm-21,8.1v0.4h1.4v-1.4l0.3-.2V326l-0.5-.3v-0.4h-1.3v0.1l0.4,0.4v8Zm21.1-23.5H331v1.2a2.48,2.48,0,0,1,1.4,1c0,0.1.1,0.2,0.1,0.3h5.8v-2.3Zm-7.5,16.2v6.4l0.2,0.3v1.1h-3.9v-1.3l-0.2-.3v-6.9l0.5-.3c3,0.2,3.7.5,3.9,0.6a1.4,1.4,0,0,0-.5.4h0Zm-0.6,2.7h-0.1c0-1.5-.7-1.4-0.7-1.4a1.29,1.29,0,0,0-.4,1v0.3h0.1v0.2l-0.1.1v3.5l0.1,0.1v0.9h0.9v-4.3l0.1-.1v-0.3h0.1Zm-41-26,0.1-.1h0c0.2,0,.4,0,0.4.1a0.48,0.48,0,0,1,.2.5,0.6,0.6,0,0,0,.3-0.6v-0.1h0l-0.1-.1h0l-0.4-.8h0a0.35,0.35,0,0,1,.3-0.4h0a1.16,1.16,0,0,1,.5.7,0.75,0.75,0,0,1,.4.7v0.1h2.1v-0.3a3,3,0,0,0-2.3-2.4h-0.4v-0.3l-0.2-.4v-0.2a1.54,1.54,0,0,0,.3-0.7,0.37,0.37,0,0,0-.3-0.4h-0.1v-0.1a0.3,0.3,0,0,0,0-.3v-0.8l-0.1-.2H290l-0.1.2v0.8a0.25,0.25,0,0,0,0,.3v0.1h-0.1a0.37,0.37,0,0,0-.3.4,1.1,1.1,0,0,0,.3.7v0.2l-0.2.4v0.3h0a2.84,2.84,0,0,0-2.3,2.4v0.3h2.1Zm22.1,22h0.2l0.2-.2h-2.6l0.2,0.2h0.2L310,326v7.9l-0.1.2v0.4h1.7v-0.4l-0.1-.2v-8.4Zm-37.4,8v1h7.4v-1.1l0.2-.3v-6.2a1.38,1.38,0,0,1-.3-0.4h-7.5v0.1a0.43,0.43,0,0,1,.3.3l0.3,0.2v6.2Zm38.1-8.2v-0.2h-0.7v-0.4h0a0.54,0.54,0,0,0-.3-0.4v-9.2a0.76,0.76,0,0,0,.2-0.5v-0.2h5.9v0.3a0.48,0.48,0,0,0,.2.4v9.3a3.1,3.1,0,0,0-.2.7h-0.4v0.2h-4.7Zm3.3-7.3h0.7a1.91,1.91,0,0,0-.7-1.5V318Zm0,2.6h0.7v-1.5h-0.7v1.5Zm0,3.2h0.7v-2.9h-0.7v2.9Zm-1.9-5.8h1.5v-1.7a1.7,1.7,0,0,0-1.6,0V318h0.1Zm0,2.6h1.5v-1.5h-1.5v1.5Zm0,3.2h1.5v-2.9h-1.5v2.9Zm-1.1-5.8h0.7v-1.5A2.17,2.17,0,0,0,312.5,318Zm0,2.6h0.7v-1.5h-0.7v1.5Zm0,3.2h0.7v-2.9h-0.7v2.9Zm-17.3-15.6v2.2h0.3v0.4h0.8V311h4.2v-0.3h1.3v-2.5l-0.4-.2h-0.7v-0.3h-0.2a2.44,2.44,0,0,0-4.2,0h-0.2v0.2h-0.8Zm-0.8-2.9h0.2l0.3-.7h-4a1.52,1.52,0,0,1,.4.6,1.33,1.33,0,0,1,.2,1.3v0.1h0a0.1,0.1,0,0,0,.1.1l0.1,0.1a0.92,0.92,0,0,1,.1-0.6,0.37,0.37,0,0,1,.3-0.1,0.52,0.52,0,0,1,.4.2,0.85,0.85,0,0,1,.2.6l0.1,0.2a1.09,1.09,0,0,1,.4.2h0a2.93,2.93,0,0,0,.8.4,0.35,0.35,0,0,1,.4.3,0.48,0.48,0,0,1,0,.4h0v0.3a2.79,2.79,0,0,1,.1,1,1,1,0,0,1,.2.7H295v-2.3l0.4-.5v-0.1h-1v-2.2Zm-13.6,8.8a1.49,1.49,0,0,1-.3-0.7h-7.6v0.1l0.4,0.5h7.5v0.1Zm21.1-6.9v0.2h-0.3v0.2l0.5,0.3v2.7h0.7v-2.7l0.5-.3v-0.2H303v-0.1a0.16,0.16,0,1,0-.1-0.3v-0.5a0.43,0.43,0,0,0,.2-0.4v-0.5s0.2-.1.1-0.6a3.54,3.54,0,0,1-.1-0.6s0.1-.5-0.3-0.4a0.35,0.35,0,0,1-.2.1h0v-0.3s0.2-.6-0.2-0.5a0.29,0.29,0,0,0-.3.3s-0.5-.1-0.5.2a0.48,0.48,0,0,0,.2.4v0.1s-0.3.5,0,.6a0.14,0.14,0,0,0,.2,0l0.1,0.1a1.27,1.27,0,0,1-.1.6,1.12,1.12,0,0,0,0,1l0.3,0.5v0.3h-0.4v-0.2Zm-19.8,3.2a4.15,4.15,0,0,1,2.4-1h-4.6l-3.1.4h-0.9v0.4h-0.3V310l-0.2-.1h-0.1l-0.1-.3a1.27,1.27,0,0,0,.2-0.6s0.1-.2,0-0.2,0.1-.2-0.2-0.3v-0.2a0.49,0.49,0,0,0-.1-0.3,0.22,0.22,0,0,0-.1.3v0.2c-0.3.1-.2,0.3-0.2,0.3s0,0.2,0,.2a2,2,0,0,0,.2.6l-0.1.3h-0.1l-0.2.1v0.2h-0.7l0.2,0.3h8v-0.1Zm21-2.3v2.5h1.3V311h4.2v-0.3h1.3v-2.5l-0.4-.3h-0.6v-0.2h-0.1a2.62,2.62,0,0,0-4.4,0h-0.1v0.1h-0.6ZM317,311h0l0.3,0.8h0.5v2h0.8v-1.1L318,312v-0.5l-0.4-.4H317V311Zm-4.6.3-0.2.3-0.3.7h-0.5l-0.2.3v1.3h0.2v0.4h5.9v-0.4h0.2v-1.7h-0.4l-0.4-.8h-4.3v-0.1Zm-1.5-.4H309V311h0v0.1l0.3,0.3,0.2,0.5h0.4l0.3,0.5v1.3h0.9v-1.3l0.3-.5h0.4l0.2-.5,0.3-.3v-0.2h-1.4Zm16.1,23.6h-7.9v-1.3l0.3-.2v-7.3l-0.5-.2v-0.4h8.3v0.3l-0.6.4V333l0.2,0.3v1.2H327Zm-3.2-7.7h-1.4v1.7h1.4v-1.7Zm-13.9-2.3a0.35,0.35,0,0,0-.1.2V325h1.4v-0.3a0.35,0.35,0,0,0-.1-0.2H311V315h0a0.77,0.77,0,0,0,.2-0.3v-0.5h-1.3v0.5a0.37,0.37,0,0,0,.2.3h0v9.6h-0.2v-0.1Zm20.9-13.6h0v-0.3c-0.2-.3-0.7-0.7-2.6-1v1h0.7v0.5l-0.5.1v0.2a11.85,11.85,0,0,1,2.4.3v-0.8h0Zm-6.1-5.2a0.3,0.3,0,0,1,0,.3,0.35,0.35,0,0,1-.2.1h0l-0.2-.1v0.1l0.4,0.4a4.33,4.33,0,0,1,.5-0.1,0.69,0.69,0,0,1,.7-0.6h0a0.6,0.6,0,0,1,.5.5,0.73,0.73,0,0,1-.2.6,0.85,0.85,0,0,0,.6.3v-2H327l0.4-.7h-3.8A3.26,3.26,0,0,1,324.7,305.71Zm-6.9,18.8-0.2.6h1v-6.9l-0.4-.4v-0.6h0.4v-3.1h-1v0.7a0.31,0.31,0,0,0,.1.2h0.1v9.5h0Zm0-13.9v0.2l0.5,0.5v0.5l0.6,0.7v4.9h-0.4v0.2l0.4,0.4v6.9h0.3v-0.2h0a0.78,0.78,0,0,1,.3-0.4v-9.6a1.38,1.38,0,0,1-.3-0.4v-0.9h0.2V312l-0.6-.4v-0.2h-0.2l-0.3-.8h-0.5Zm-21.6.7-0.4.8h-0.4v1.7h0.2v0.4h5.9v-0.4h0.2v-1.3l-0.2-.3H301l-0.3-.7-0.2-.3h-4.3v0.1Zm-1,3.6a0.31,0.31,0,0,0,.1-0.2V314h-1v3.1h0.4v0.6l-0.4.4V325h1a1.27,1.27,0,0,0-.2-0.6h0l0.1-9.5h0Zm-0.9-3.4h-0.2v0.2l-0.6.4v1.4h0.2v0.8a0.85,0.85,0,0,1-.3.5v9.5a0.78,0.78,0,0,1,.3.4h0v0.2H294V318l0.4-.4v-0.2H294v-4.9l0.6-.7v-0.5l0.5-.5v-0.2h-0.5Zm-19.6,3.6v0.5h-0.2v0.1l0.2,0.1v3.4h7l-0.1-.1v-3.5a7.75,7.75,0,0,1-.1-0.9,0.76,0.76,0,0,1-.4-0.2l-0.1-.1h-7.3Zm28.1-4.2h-1.9v0.2l0.3,0.3,0.2,0.5h0.4l0.3,0.5v1.3H303v-1.3l0.3-.5h0.4l0.2-.5,0.3-.3v-0.2h-1.4Zm-20.6,14.8v-6.3L282,319v-0.8c0.1-1.8.8-2.3,0.9-2.3,1.1-.2,1.6,1.6,1.6,1.8v7.7C283.6,325.51,282.8,325.61,282.2,325.71Zm1.7-7.3a2.27,2.27,0,0,0,.4-0.1v-0.1a3.77,3.77,0,0,0-.4-1.2v1.4Zm0,2.5h0.4v-1.5a0.6,0.6,0,0,0-.4.1v1.4Zm0,3.3,0.4-.1v-3h-0.4v3.1Zm-1-5.6c0.2-.1.4-0.1,0.6-0.2v-1.7h-0.1s-0.4.3-.5,0.4v1.5Zm0,2.5c0.2-.1.4-0.1,0.6-0.2v-1.4a1.42,1.42,0,0,0-.6.2v1.4Zm0,3.3,0.6-.1v-3.1a1.42,1.42,0,0,0-.6.2v3Zm19,0.1a0.35,0.35,0,0,0-.1.2V325h1.4v-0.3a0.35,0.35,0,0,0-.1-0.2H303V315h0a0.77,0.77,0,0,0,.2-0.3v-0.5h-1.3v0.5a0.37,0.37,0,0,0,.2.3h0v9.6h-0.2v-0.1Zm-6.9-13V312l-0.6.7v1.1h0.8v-2h0.5l0.3-.7V311h-0.6Zm31.3,13.2a0.43,0.43,0,0,0-.3-0.3h-0.1v-9.8H326a0.77,0.77,0,0,0,.2-0.3v-0.6h-1.5v0.6a0.53,0.53,0,0,0,.2.3H325v9.8h-0.1l-0.3.3v0.2h1.6v-0.2h0.1Zm-22-13.4-0.2.2-0.3.7h-0.5l-0.2.3v1.3h0.2v0.4h6.1v-0.4h0.2v-1.3l-0.2-.3h-0.5l-0.3-.7-0.2-.2h-4.1Zm14.6-2.5h0a2.22,2.22,0,0,0-.1.9v0.1h0a0.51,0.51,0,0,0-.1.5h0.6c0.3-.3,1.5-1.7,2.6-1.8v-0.8h2.2v0.9a5,5,0,0,1,2.6,1.8h1.2v-0.8h-0.4V309a1.38,1.38,0,0,1-.3-0.4s0-.1-0.2-0.1v-0.4s0-.2.2-0.1c0,0,.1.4,0.3,0.3,0,0,.3-0.3-0.4-0.7a1.13,1.13,0,0,1-1.3-.4l-0.1-.1,0.1-.1a0.54,0.54,0,0,0,.3-0.4,0.34,0.34,0,0,0-.3-0.2c-0.1,0-.2,0-0.2.1a0.76,0.76,0,0,0-.1.4v0.2l-0.2-.1a0.44,0.44,0,0,0-.5.1h-0.1l-0.1-.1a2.25,2.25,0,0,0-.5-0.5l-0.1-.1,0.1-.6,0.4,0.1h0a3,3,0,0,0-1.2-1.2,0.1,0.1,0,0,1-.1-0.1,0.19,0.19,0,0,1,0-.3v-0.1h0.1a0.53,0.53,0,0,0,.2-0.3c0-.1-0.1-0.2-0.1-0.3h-0.2a0.6,0.6,0,0,0-.1.4v0.1h-0.3a1.16,1.16,0,0,1-.6-0.8l-0.1-.1a0.34,0.34,0,0,1,.2-0.3l0.3-.7v-0.1a0.86,0.86,0,0,0-.3.6v0.1h-0.1c-0.2,0-.2.4-0.2,0.4a0.87,0.87,0,0,0,.4.8h0.1v0.4h-0.1a3.11,3.11,0,0,0-.4.6h0a1.14,1.14,0,0,0-.2.9l0.1,0.1a0.27,0.27,0,0,1-.1.4,0.64,0.64,0,0,1-.6.2h-0.1v-0.1a0.57,0.57,0,0,0,0-.5h0a0.2,0.2,0,0,0-.2.1,0.6,0.6,0,0,0-.1.4h0l-0.2.4h-0.1a1,1,0,0,0-.3.1,2.13,2.13,0,0,1-1,.6h0c-0.1,0-.2.1-0.3,0.1v0.1a3.18,3.18,0,0,1,0,1h0Zm7.7-4.5v-0.4l0.1-.1h-3v0.1c0,0.1-.1.2-0.1,0.3h3v0.1Zm-7.9,0h3.2a0.76,0.76,0,0,1-.2-0.5h-3l0.1,0.1v0.4h-0.1Zm-29,.4a2.82,2.82,0,0,0-1.2,1.2h0l0.4-.1,0.1,0.6-0.1.1-0.5.5-0.1.1h-0.1c-0.1,0-.4-0.1-0.5-0.1l-0.2.1v-0.2a0.76,0.76,0,0,0-.1-0.4,0.2,0.2,0,0,0-.2-0.1,0.34,0.34,0,0,0-.3.2,0.78,0.78,0,0,0,.3.4l0.1,0.1-0.1.1a1.13,1.13,0,0,1-1.3.4c-0.7.4-.4,0.7-0.4,0.7a0.43,0.43,0,0,0,.3-0.3c0.2-.1.2,0.1,0.2,0.1v0.4c-0.2,0-.2.1-0.2,0.1a1.38,1.38,0,0,1-.3.4v0.6h-0.4v0.8h1.2c0.3-.3,1.5-1.7,2.6-1.8v-0.9h2.2v0.9a5,5,0,0,1,2.6,1.8h0.5a0.9,0.9,0,0,0-.1-0.5h0v-0.1a7.75,7.75,0,0,0-.1-0.9h0a1.08,1.08,0,0,1,.1-0.6v-0.1c0-.1-0.1-0.1-0.3-0.1h0a2.82,2.82,0,0,1-1-.6,1,1,0,0,0-.3-0.1h-0.1l-0.2-.4h0a0.6,0.6,0,0,0-.1-0.4c0-.1-0.1-0.1-0.2-0.1h0a0.69,0.69,0,0,0,0,.5v0.1h-0.1a0.73,0.73,0,0,1-.6-0.2,2.27,2.27,0,0,1-.1-0.4l0.1-.1a1.08,1.08,0,0,0-.2-0.9h0a3.11,3.11,0,0,0-.4-0.6h-0.1v-0.4h0.1a1.08,1.08,0,0,0,.4-0.8s0-.4-0.2-0.4h-0.1v-0.1a0.86,0.86,0,0,0-.3-0.6v0.1l0.3,0.7a0.53,0.53,0,0,1,.2.3c0,0.1,0,.1-0.1.1a1.07,1.07,0,0,1-.6.8h-0.3v-0.1a0.6,0.6,0,0,0-.1-0.4,0.14,0.14,0,0,0-.2,0c-0.1,0-.1.2-0.1,0.3a0.53,0.53,0,0,0,.2.3h0.1v0.4C289.8,304.71,289.7,304.71,289.7,304.71Zm30.1,8.7h6v-1.5l0.6-.4h-7.5l0.6,0.4v1.5h0.3Zm-45.4-2.8,0.3,0.2v2.3h5.8a0.37,0.37,0,0,1,.1-0.3,2.48,2.48,0,0,1,1.4-1v-1.2h-7.6Zm7.5,22.6v-6.4h0a2.18,2.18,0,0,1-.4-0.5c0.2-.1.9-0.4,3.9-0.6l0.5,0.3v6.9l-0.2.3v1.3h-3.9v-1.1Zm0.6-3.4,0.1,0.1v4.3h0.9v-0.9l0.1-.1v-3.5l-0.1-.1v-0.2h0.1v-0.3a1.41,1.41,0,0,0-.4-1s-0.7-.1-0.7,1.4h-0.1v0.3h0.1Zm-1.1-15.5a0.7,0.7,0,0,0,.4.2h0.1v0.1c0,0.4.1,0.9,0.1,1h0v1.1a2.21,2.21,0,0,1,.8-1.1h0c1.4-.3,1.9,2,2,2h0v7.7h0.5v-0.5h0.6V318l-0.5-.5V317h0.5v-4.6l-0.8-.8h-0.3c-3.4,0-4,1.2-4,1.2a1.53,1.53,0,0,0,.6,1.5h0Zm5-10h3a0.37,0.37,0,0,1-.1-0.3v-0.1h-3l0.1,0.1v0.3Zm4.7,0h3.2v-0.4l0.1-.1h-3A2.19,2.19,0,0,1,291.1,304.31Zm30.4,20.6v-0.2h0a0.78,0.78,0,0,0-.3-0.4v-9.6a1.07,1.07,0,0,0,.3-0.5v-0.5h3v0.6a0.45,0.45,0,0,0,.3.4v9.5a0.78,0.78,0,0,0-.3.4h0v0.2h-3v0.1Zm1.3-4.2H322v2.4h0.8v-2.4Zm1.1,0h-0.8v2.4h0.8v-2.4Zm0-1.7H322v1.2h1.9V319Zm-1.9-3.7a1,1,0,1,0,1-1A1.07,1.07,0,0,0,322,315.31Zm-47.4,10.6v0.2h-0.1v0.2h6.8v-0.1a1.54,1.54,0,0,1,.7-0.3v-6.3h-7.5l0.3,0.3v6h-0.2Zm45.2-1.5-0.3.3v0.2h1.6v-0.2a0.43,0.43,0,0,0-.3-0.3h-0.1v-9.8h0.1a0.77,0.77,0,0,0,.2-0.3v-0.6h-1.4v0.6a0.53,0.53,0,0,0,.2.3h0.1l-0.1,9.8h0Zm2.3-16.5v0.9H322c-1.1,0-2.6,1.8-2.6,1.8v0.1h-0.6l0.2,0.5h8.1l0.2-.5h-0.6v-0.1s-1.5-1.8-2.6-1.8H324v-0.9h-1.9ZM286.2,333v-7.2l-0.6-.4v-0.3h8.3v0.4l-0.3.2V333l0.3,0.2v1.3H286v-1.2Zm3-4.5h1.4v-1.7h-1.4v1.7Zm-2.8-3.6v-0.2h0a0.78,0.78,0,0,1,.3-0.4v-9.6a1.38,1.38,0,0,1-.3-0.4v-0.9h0.2V312l-0.6-.4v-0.2h-0.2l-0.3-.8h-0.4v0.2h-0.7v0.1l0.5,0.1v0.4h0.2l1,1v5h-0.5v0.1l0.5,0.5v6.9h0.3Zm2.2,0v-0.2h0a0.78,0.78,0,0,0-.3-0.4v-9.6a1.07,1.07,0,0,0,.3-0.5v-0.5h3v0.6a0.45,0.45,0,0,0,.3.4v9.5a0.78,0.78,0,0,0-.3.4h0v0.2h-3v0.1Zm1.3-4.2h-0.8v2.4h0.8v-2.4Zm1.1,0h-0.8v2.4H291v-2.4Zm0-1.7h-1.9v1.2H291V319Zm-2-3.7a1,1,0,1,0,1-1A1.17,1.17,0,0,0,289,315.31Zm38.8-3.9H328V311l0.5-.1v-0.1h-0.7v-0.2h-0.4l-0.3.8h-0.2v0.2l-0.6.4v1.4h0.2v0.8a0.85,0.85,0,0,1-.3.5v9.5a0.78,0.78,0,0,1,.3.4h0v0.2h0.2v-6.9l0.5-.5v-0.1h-0.5v-5Z" transform="translate(-190.6 -229.61)"/><path class="cls-9" d="M328.1,321.91h-2.5v-1.4l-1.1-.9h-0.3v-0.4L324,319h5.7l-0.2.2v0.4h-0.3l-1.1.9v1.4h0Zm-1.3.3h0c-0.1.2-.1,0.4-0.2,0.6l-0.2.2v11.7l0.4,0.7,0.4-.7V323a0.38,0.38,0,0,1-.2-0.2A1.07,1.07,0,0,1,326.8,322.21Zm6.2-13v0.4l0.2,0.2v5.9h3.4v-0.9l-0.1-.2v-4.9l0.2-.2v-0.4a1.86,1.86,0,0,0-1.8-.8C333.4,308.31,333,309,333,309.21Zm-1.5,11.4v-0.8l-0.4-.5h-0.6v-0.4H330V319l-0.2.2v0.6h-0.5l-0.9.8v1.2h3.2v-0.4h-0.3v-0.9h0.2v0.1Zm0.6-2.3h5.3l-2.7-1.1Zm6.2,0.7h-7.6v-0.4l-0.3-.2,4.3-1.9,4.3,1.9-0.3.2V319h-0.4Zm-0.3-.8-3.2-1.3-3.2,1.3v0.5h6.3v-0.5H338Zm-0.2,2.9h0.3v-0.2h-0.3v-1.2l0.3-.4h-6.6l0.3,0.4v1.2h-0.3v0.2h0.3v0.7h6v-0.7Zm-1.5-12.8a4,4,0,0,1,.7.7v0.6l-0.2.2v4.7l0.1,0.2v0.9h0.4v-6.4l-0.1-.1v-0.7h-0.9v-0.1Zm-5.3,7.8,0.3,0.3v1.1l3.5-1.5,3.5,1.5v-1.1l0.3-.3v-0.2H331v0.2Zm1-.5v-6.5l0.1-.1v-0.6h-0.6V309l0.1,0.1v6.5H332Zm0.7,19,0.1,0.2v-5l-0.1-.3v5.1Zm-6.3-19v-6.5l0.1-.1v-0.6h-0.6V309l0.1,0.1v6.5h0.4Zm2.4,0.6v0.1l-0.3.3v2h1.7l-0.5-.4,1.2-.5v-1.1l-0.3-.3v-0.1h-1.8Zm-3.5-.1,0.3,0.3v2.2h2.6v-2.2l0.3-.3v-0.2h-3.2v0.2h0Zm1.6-7.8V309l-0.1.1v6.4h0.6v-6.4l-0.1-.1v-0.7h-0.4Zm1.1,7.3v-6.5l0.1-.1v-0.6h-0.6V309l0.1,0.1v6.5H328Zm-4.2,3.6h0v0.7h-0.5l-0.9.8v1.2h3v-1.2l-0.9-.8H324l-0.2-.7h0Zm-0.2-.6h1.6v-2l-0.3-.3v-0.1h-6.3l0.6,0.6v1.8h4.4Zm-2.9-3.2h0.2v0.5H325v-0.2h0.7v-6.4l-0.1-.1v-0.7H325a0.5,0.5,0,0,0,.3.5v0.9H325a4.64,4.64,0,0,1-3.8,4.4h0l-0.5.3v0.8h0Zm3.8-9.2,0.7,1.4v0.3h6.1v-1.2l-0.3-.5v-0.1h-6.5v0.1Zm20.1,3.6h-0.3v-0.9a0.69,0.69,0,0,0,.3-0.5H344v0.7l-0.1.1v6.4h0.7v0.2h4.1v-0.5h0.2v-0.8l-0.5-.3h0A4.64,4.64,0,0,1,344.6,309.81Zm-23.8,12.1H322v-1.4l1.1-.9h0.3v-0.4l0.2-.2h-5.8v0.1l0.2,0.2v0.5h0.4l1,0.9V322h1.4v-0.1Zm30.2-5.7h-6.4v0.1l-0.3.3v2h6v-1.8Zm-2.2,19,0.3-.6v-11.7a0.38,0.38,0,0,1-.2-0.2,0.37,0.37,0,0,1-.1-0.3c0,0.1-.1.2-0.1,0.3l-0.2.2v11.7Zm-1.4-12.5h0.1v12l-0.4.8v0.7h1.4v-0.7l-0.4-.8v-12h0.2a0.43,0.43,0,0,0,.2-0.4h-1.2A0.3,0.3,0,0,0,347.4,322.71Zm-14.2,5.7a3.92,3.92,0,0,1,.9-0.4h-0.9v0.4Zm3.2-4.7h-3.3V327h3.3v-3.3Zm-0.3,3.6h-2.6v0.4h2.6v-0.4Zm0.3,0.7h-0.9a1.88,1.88,0,0,1,.9.4V328Zm7.6-7.5,1.1-.9h0.3v-0.4l0.2-.2h-5.7l0.2,0.2v0.4h0.3l1.1,0.9v1.4H344v-1.4h0Zm-7.2,14.3,0.1-.2v-5.1l-0.1.2v5.1Zm6-12.6h0c-0.1.2-.1,0.4-0.2,0.6l-0.2.2v11.7l0.4,0.7,0.4-.7V323a0.38,0.38,0,0,1-.2-0.2A1.07,1.07,0,0,1,342.8,322.21Zm-5.9.8a0.38,0.38,0,0,1-.2-0.2,0.85,0.85,0,0,1-.2-0.6h-3.6a0.73,0.73,0,0,1-.2.6l-0.2.2v5.8h0l0.1-.1v-1h0.3v-0.4h-0.3v-4h4v4h-0.3v0.4h0.3v1l0.1,0.1h0V323h0.2Zm-16.4,11.6,0.3,0.6,0.3-.6v-11.7a0.38,0.38,0,0,1-.2-0.2,0.37,0.37,0,0,1-.1-0.3c0,0.1-.1.2-0.1,0.3l-0.2.2v11.7Zm12.2,1.5v-0.6l-0.4-.8v-12h0.2a0.43,0.43,0,0,0,.2-0.4h-1.2c0,0.4.2,0.4,0.2,0.4h0.1v12l-0.4.8v0.7h1.4v-0.1h-0.1Zm-12.1-.5-0.4-.8v-12.1h0.2a0.43,0.43,0,0,0,.2-0.4h-1.5c0,0.6.3,0.6,0.3,0.6v11.8l-0.4.8v0.8h1.6v-0.7h0Zm8.2,0.7v-0.8l-0.4-.8V323a0.38,0.38,0,0,0,.2-0.2,0.85,0.85,0,0,0,.2-0.6h2.3a0.73,0.73,0,0,0,.2.6l0.2,0.2v11.7l-0.4.8v0.8h-2.3Zm0.4-7.5h0.9v-2.1a0.5,0.5,0,0,0-1,0v2.1h0.1Zm9,6.8-0.4-.8v-12.1H338a0.43,0.43,0,0,0,.2-0.4H337c0,0.4.2,0.4,0.2,0.4h0.1v12l-0.4.8v0.8h1.4v-0.7h-0.1Zm-1.6-6.7a2.66,2.66,0,0,0-3.6,0v0.4h3.6v-0.4Zm-10.1,6.7-0.4-.8v-12.1h0.2a0.43,0.43,0,0,0,.2-0.4h-1.2c0,0.4.2,0.4,0.2,0.4h0.1v12l-0.4.8v0.7h1.4v-0.6h-0.1Zm10,0.7v-6.7H333v6.7h0.3v-5.5h2.8v5.5h0.4Zm-8-.7-0.4-.8v-12.1h0.2a0.43,0.43,0,0,0,.2-0.4h-1.2c0,0.4.2,0.4,0.2,0.4h0.1v12l-0.4.8v0.7h1.4v-0.6h-0.1Zm-5.7.7v-0.8l-0.4-.8V323a0.38,0.38,0,0,0,.2-0.2,0.85,0.85,0,0,0,.2-0.6h2.1a0.73,0.73,0,0,0,.2.6l0.2,0.2v11.7l-0.4.8v0.8h-2.1Zm0.3-7.5H324v-2.1a0.5,0.5,0,0,0-1,0v2.1h0.1Zm22.8-8.9v-0.6h0v0.6h-0.6l-0.9.8v1.2h3v-1.2l-0.9-.8h-0.6Zm3.3-5.6v1.4H349v0.1h1.2v-0.3H350v-1.1l0.3-.1V314H350l-0.4-3.2h-0.2L349,314h-0.3v0.1Zm-10.6,22v-0.8l-0.4-.8V323a0.38,0.38,0,0,0,.2-0.2,0.85,0.85,0,0,0,.2-0.6h2.3a0.73,0.73,0,0,0,.2.6l0.2,0.2v11.7l-0.4.8v0.8h-2.3Zm0.8-7.5h0.9v-2.1a0.5,0.5,0,0,0-1,0v2.1h0.1Zm5.4,7.5v-0.8l-0.4-.8V323a0.38,0.38,0,0,0,.2-0.2,0.85,0.85,0,0,0,.2-0.6h2.1a0.73,0.73,0,0,0,.2.6l0.2,0.2v11.7l-0.4.8v0.8h-2.1Zm0.8-7.5h0.9v-2.1a0.5,0.5,0,0,0-1,0v2.1h0.1Zm-26.1-13.3h-0.2v0.3h1.2v-0.1h-0.2v-1.4l0.4-.2V314h-0.3l-0.4-3.2h-0.2l-0.4,3.2h-0.3v0.3l0.3,0.1v1.1h0.1Zm23,20.1-0.4-.8v-12.1h0.2a0.43,0.43,0,0,0,.2-0.4h-1.2c0,0.4.2,0.4,0.2,0.4h0.1v12l-0.4.8v0.7h1.4v-0.6h-0.1Zm2,0-0.4-.8v-12.1h0.2a0.43,0.43,0,0,0,.2-0.4h-1.2c0,0.4.2,0.4,0.2,0.4h0.1v12l-0.4.8v0.7h1.4v-0.6h-0.1Zm-6.5-20v-6.5l0.1-.1v-0.6h-0.6V309l0.1,0.1v6.5H338Zm0.7-9.3-0.3.5V308h6.1v-0.3l0.7-1.4h-6.5Zm3.8,2V309l-0.1.1v6.4H343v-6.4l-0.1-.1v-0.7h-0.4Zm1.1,7.3v-6.5l0.1-.1v-0.6h-0.6V309l0.1,0.1v6.5h0.4Zm-2.5.5,0.3,0.3v2.2H344v-2.2l0.3-.3v-0.2h-3.2v0.2h0Zm0.9-.5v-6.5l0.1-.1v-0.6h-0.6V309l0.1,0.1v6.5H342Zm-3.5,6.3h2.8v-1.2l-0.9-.8h-0.5v-0.6l-0.2-.2V319h-0.5v0.4h-0.6l-0.4.5v0.8h0.3v0.9h-0.3V322h0.3v-0.1Zm-6-12.8-0.1.1v6.4h0.4v-5.8l-0.2-.1v-0.6a1.24,1.24,0,0,1,.7-0.7h-0.8v0.7Zm6.4,7.1v0.1l-0.3.3v1.1l1.2,0.5-0.5.4H341v-2l-0.3-.3v-0.1h-1.8Zm-16.5,19.4-0.4-.8v-12.1h0.2a0.43,0.43,0,0,0,.2-0.4h-1.2c0,0.4.2,0.4,0.2,0.4h0.1v12l-0.4.8v0.7h1.4v-0.6h-0.1Zm22.8-29.7,0.2-.4v-0.3h-0.3l-1-.5v-0.6l0.2-.3v-0.3h-0.2l-0.3-2.5h-0.4l-0.3,2.5h-0.2v0.3l0.2,0.3v0.2l-7.5-4.5V298h-0.5v-1.5h0.8v-0.4h-0.8V295h-0.5v1.1h-0.8v0.4h0.8V298h-0.5v1.8l-7.5,4.5v-0.2l0.2-.3v-0.3h-0.2l-0.3-2.5h-0.4l-0.3,2.5h-0.2v0.3l0.2,0.3v0.6l-1,.5h-0.3v0.3l0.2,0.4h20.7Zm5,16.9a0.58,0.58,0,0,0,.4-0.6h-1.5c0,0.4.2,0.4,0.2,0.4h0.1v12.1l-0.4.8v0.7h1.9v-0.8l-0.7-.8v-11.8Zm-19.1-13.7,0.1,0.1v6.4h-0.6v0.2h-1.8v-0.2h-0.5v-6.4l0.1-.1v-0.7h2.7v0.7Zm-1.4,2.2a0.56,0.56,0,0,0-.5.6v2.7h0.9v-2.7A0.45,0.45,0,0,0,329.7,311.31Zm16.3,7.6,0.2,0.2v0.4h0.3l1.1,0.9v1.4h1.2v0h1.4v-1.3l1-.9h0.4v-0.5l0.2-.2v-0.1H346v0.1Zm-7.5-10.6h2.7V309l0.1,0.1v6.4h-0.5v0.2H339v-0.2h-0.6v-6.4l0.1-.1v-0.7Zm0.9,3.5v2.7h0.9v-2.7a0.56,0.56,0,0,0-.5-0.6A0.62,0.62,0,0,0,339.4,311.81Zm-8.2-5.6,0.3,0.5v1.2H338v-1.2l0.3-.5h-7.1Z" transform="translate(-190.6 -229.61)"/><path class="cls-10" d="M287.2,310.71h-0.6l-0.5.7v-2.7l1.1-1.9v3.9Zm8.3-4.3,0.4-.4h0l-8.7-.3,0.3,0.5Zm-8.3-1.3v0.2h0.6v-0.2l-0.1-.2v-0.4h0a0.1,0.1,0,0,0,.1-0.1l-0.1-.1h-0.1v-0.6h-0.3v0.5a0.22,0.22,0,0,0-.1.4v0.5Zm-0.1,6.6L296,312h0l0.2-.4v-0.3l-9.3-.3Zm0.1,4.1v20.5h1.2v-20.2l-0.1-.3h-1.1Zm0.9-10.7v0.2l5.7,0.2h0v-0.2l-1.3-.7-2.7-.1Zm-1.6,20.5-0.3-.8h-0.1l-1.6,1.6v0.3h0.1l0.8-.8h1.1v-0.3Zm-1.1,4.8a2.12,2.12,0,0,0-.7.3v-3.6l0.8-.8h1v4.1h-1.1Zm0.5-3h0.5v-0.6h-0.5v0.6Zm0,1.7h0.5v-1.5h-0.5v1.5Zm0.8-18-1.8,2.5v0.2l0.3,0.1,1.6-2.2Zm5-4.6A1.69,1.69,0,0,1,293,308a1.61,1.61,0,0,1-1.7,1.6,1.67,1.67,0,0,1-1.7-1.6,1.52,1.52,0,0,1,1.4-1.5l-3.6-.2v4.4l3.5,0.1V310h0.5v0.8l3.7,0.1v-4.3Zm-4.5-.3-0.4-.6-1.4,2.8v0.1l0.5,0.1Zm-1.6,25.7,0.8-.4v-0.8h-1a1.27,1.27,0,0,0-.7.4,2.31,2.31,0,0,0,.9.6v0.2Zm1.3-19.6-1.5,2v10.9l0.6-.6h0.5l0.3,1.1v4.5l-0.1.4v1.2l-1.1.5v4.1h1.3v-24.1Zm5.4-10.9v2.9l-2.3-.1v-2.9l2.3,0.1h0Zm-0.8,1.2a0.51,0.51,0,0,0-1,0v1.3h0.9v-1.3h0.1Zm-4.3.8-0.1-.1v-0.2l0.4-.9h0.2l0.2-.5,1.9-.4v2.9l-1.7.6h0v-0.2a0.37,0.37,0,0,0,.1-0.3,0.53,0.53,0,0,0-.2-0.3v-0.7h-0.8v0.1Zm1.3,0.9,0.6-.2v-1.4a0.74,0.74,0,0,0-.6.4v1.2Zm9.1,29.5v2.5h-8.9v-20.2l-0.2-.5h-1.3v-3.5l8.9,0.3v17.1h1v0.8Zm-7.9-3.7H289v0.8h0.7v-0.8Zm0-7.6a0.29,0.29,0,0,0-.3-0.3,0.43,0.43,0,0,0-.3.3v1.2h0.5v-1.2h0.1Zm0.5,8.4h0.6v-1.3h-0.6v1.3Zm1.3,3.1h-0.7v1.5h0.7V334Zm0-20.3h-0.3v0.5h0.3v-0.5Zm3.3,16.1h-0.5v1h0.5v-1Zm-0.1-24.5v0.2h0.8v-0.2l-0.2-.2v-0.3s0.4-.4,0-0.5v-0.6h-0.4v0.6c-0.4,0,0,.5,0,0.5v0.3Zm-3.4,4a1.3,1.3,0,1,0-1.4-1.3A1.42,1.42,0,0,0,291.3,309.31Zm-2.7-8.3v-0.6l-0.2-.2V300h0.2v-1.3l-0.1-.4a1,1,0,0,1,.7-0.5v-0.2a0.85,0.85,0,0,1-.3-0.6,1.33,1.33,0,0,1,1-.9v-0.6a0.42,0.42,0,0,1,0-.5v-0.3a0.66,0.66,0,0,1-.2-0.7,0.81,0.81,0,0,1,.5-0.6v-2.8h0.4v2.8a0.69,0.69,0,0,1,.5.6,1,1,0,0,1-.2.7v0.2a0.42,0.42,0,0,1,0,.5V296a1.33,1.33,0,0,1,1,.9,1,1,0,0,1-.3.6v0.2a1.56,1.56,0,0,1,.7.5l-0.1.4v1.3h0.2v0.2l-0.2.2v0.2l0.9,0.7-0.5-.2-2.6-.1-1.8.4,0.2-.4Zm2.6-1.4,0.4,0.1v-1c-0.2-.4-0.4-0.1-0.4-0.1v1Zm-1.2-.1h0.7v-0.9a0.4,0.4,0,1,0-.8,0v0.9H290Zm-1,.2,0.6-.1v-1a0.39,0.39,0,0,0-.6.1v1Zm4.3,2.4,0.6,0.3v0.1l-0.3.5v1.9l-1-.5v-2.8l0.7,0.2v0.3h0Zm0,0.8a0.51,0.51,0,0,0-.4-0.4v1.4l0.4,0.2v-1.2Z" transform="translate(-190.6 -229.61)"/><path class="cls-11" d="M266.9,305h0.9v-0.1l1.3-2.1v-0.4h0.1v-0.6h-0.1v-0.1h0.2v-1h-0.4v-0.2h0.4v-0.4h0.2v0.4h0.4v0.2h-0.3v1h0.1v0.1h0.1v0.1h-0.2v0.6h0.1v0.4L271,305v0.1h1v0.5h-5.2V305h0.1Zm5.3,21.3v1.1l0.4,0.3h0.5v0.9h-6.8v-0.9h0.5l0.4-.3v-1.1l0.4-.5v-4.4l-0.1-.1,0.7-.2h3l0.7,0.2-0.1.1v4.4Zm-4.2.3s0-.2-0.3-0.2-0.3.2-.3,0.2v1.9H268v-1.9Zm0.3-4.7-0.1-.1v-0.2l-0.3-.2-0.2.1v4.3L268,326h0.1v-0.2l0.1-.1v-0.4l0.1-.2v-3.2h0Zm0.7,0.2h0V322s0-.3-0.2-0.3-0.2.3-.2,0.3v0.1h0v2.3h0v0.3H269v-0.3h0v-2.3Zm1,0h0l-0.1-.1a0.3,0.3,0,0,0-.6,0v0.1h-0.1v2.3h0.1v0.2l0.1,0.1h0.4l0.1-.1v-0.2H270v-2.3Zm0.9,0h0V322s0-.3-0.2-0.3-0.2.3-.2,0.3v0.1h0v2.3h0v0.3h0.4v-0.3h0v-2.3Zm0.3,3.7V326h0.1l0.3-.2v-4.3l-0.2-.1-0.3.2v0.2l-0.1.1v3.2l0.1,0.2v0.4Zm0.8,0.8s0-.2-0.3-0.2-0.3.2-.3,0.2v1.9H272v-1.9Zm3-38.9,0.4-.1h1l0.4,0.1h0a1.06,1.06,0,0,0-.8-1.4v-2s0.2-.3,0-0.4V283h-0.2v0.9c-0.2.1,0,.4,0,0.4v2a1.16,1.16,0,0,0-.8,1.4h0Zm-11,31.7v2.1h-1.4v-2.1a1.47,1.47,0,0,1,.7-1.2A1.37,1.37,0,0,1,264,319.41Zm-0.9,0a497688447798.25,497688447798.25,0,0,0-.2-0.2l-0.1.1a0.1,0.1,0,0,0-.1.1v1.9h0.4v-1.9h0Zm0.6-.1a0.1,0.1,0,0,0-.1-0.1l-0.1.1a0.1,0.1,0,0,0-.1.1v1.9h0.4v-1.9A0.1,0.1,0,0,0,263.7,319.31Zm-0.1-.4a0.78,0.78,0,0,0-.3-0.4,0.55,0.55,0,0,0-.3.4V319l0.2,0.2h0.4v-0.3h0Zm11.6-29.8,0.3-.1h1l0.2,0.1v-0.7l0.2-.3V288l-0.5-.2h-0.9l-0.5.2v0.1l0.2,0.3v0.7ZM262,318.91v2.6h-0.9v-2.6a1.06,1.06,0,0,1,.5-0.7A1.13,1.13,0,0,1,262,318.91Zm-0.6.5a497688447798.2,497688447798.2,0,0,1-.2-0.2l-0.1.1-0.1.1v1.9h0.3v-1.9h0.1Zm0.5-.1a0.1,0.1,0,0,0-.1-0.1l-0.1.1-0.1.1v1.9h0.3v-2Zm-0.1-.4a0.78,0.78,0,0,0-.3-0.4,1.73,1.73,0,0,0-.3.4V319l0.1,0.2h0.2l0.3-.3h0Zm15.8-24.1v-0.1a1.12,1.12,0,0,1,.5-0.9l-0.9-.3v3h0.3v-1.1l-0.1-.3v-0.2Zm0.9-.9a0.88,0.88,0,0,0-.7.8v0.2l-0.1.1v0.1l0.1,0.3v1.1h1.7v-1l0.1-.3v-0.1l-0.1-.1v-0.3a1.07,1.07,0,0,0-.9-1v-1.5a0.28,0.28,0,0,0,0-.4v-0.6h-0.1v0.6a0.28,0.28,0,0,0,0,.4h0.1l-0.1,1.7h0ZM264,317.21h-1.4v-2.5a0.74,0.74,0,1,1,1.4,0v2.5Zm-0.9-2.2a497688447798.11,497688447798.11,0,0,0-.2-0.2l-0.1.1a0.1,0.1,0,0,0-.1.1v1.9h0.4V315h0Zm0.2-.3h0.2l0.2-.2v-0.1a0.78,0.78,0,0,0-.3-0.4,0.55,0.55,0,0,0-.3.4v0.1l0.2,0.2h0Zm0.5,0.3a0.1,0.1,0,0,0-.1-0.1,0.1,0.1,0,0,0-.1-0.1l-0.1.1a0.1,0.1,0,0,0-.1.1v1.9h0.4V315h0Zm2,6.5h1.1v-4H267v-0.1h-7.2v4h1.1v-2.6a1.19,1.19,0,0,1,.6-0.9l0.1-.1,0.1,0.1a1.19,1.19,0,0,1,.6.9v2.6h0.1v-2.1a1.82,1.82,0,0,1,.9-1.5h0.2a1.82,1.82,0,0,1,.9,1.5v2.1h0.1v-2.6a1.19,1.19,0,0,1,.6-0.9l0.1-.1,0.1,0.1a1.19,1.19,0,0,1,.6.9v2.7h-0.1Zm8.6-26.1v1.1h0.3v-3l-0.9.3a1.12,1.12,0,0,1,.5.9v0.1l0.1,0.2v0.4Zm-2.3,22h0v-4.2H272v-0.5h0.1v-1.3h-5.2v1.3H267v0.5h-0.1v4.1h0.3v0.6H267v3.7h0.2l-0.1-.2V321l0.4-.2,0.2-.2v-6.1c0-.1,0-1.3,1.9-2.2a2.47,2.47,0,0,1,1.9,2.1v6.2l0.2,0.2,0.1,0.1v-3.2H272v-0.3h0.1Zm-6.6,1.5v2.6h-0.9v-2.6a1.06,1.06,0,0,1,.5-0.7A1.13,1.13,0,0,1,265.5,318.91Zm-0.6.5a497688447798.27,497688447798.27,0,0,1-.2-0.2l-0.1.1-0.1.1v1.9h0.3v-1.9h0.1Zm0.5-.1a0.1,0.1,0,0,0-.1-0.1l-0.1.1-0.1.1v1.9h0.3v-2Zm-0.1-.4a0.78,0.78,0,0,0-.3-0.4,1.73,1.73,0,0,0-.3.4V319l0.1,0.2H265l0.3-.3h0Zm7.1-22.4h1.8v-1.1l0.1-.3V295l-0.1-.1v-0.2a0.81,0.81,0,0,0-.7-0.8h-0.1v-1.5h0a0.28,0.28,0,0,0,0-.4v-0.6h-0.2V292a0.28,0.28,0,0,0,0,.4v1.5a1.06,1.06,0,0,0-.8,1v0.2l-0.1.1v0.1l0.1,0.3v0.9h0Zm4.8-3.3,0.9,0.3a2.24,2.24,0,0,0-1.3-1.6v-0.2l0.2-.1v-0.1l-0.1-.2-0.5-.2h-0.9l-0.5.2-0.1.2v0.1l0.2,0.1v0.2a2.24,2.24,0,0,0-1.3,1.6l1-.3h2.4Zm-9.8,27.9h0l0.8-.1h3.4l0.4,0.1V321l-0.3-.1-0.3-.3-0.2-.2H271v0.1h-0.5v-0.1a1.31,1.31,0,0,0-.5-1.3h0v-0.4h-0.2v-1.1h0v-0.3h0v-0.6h-0.2v0.6h0v0.3h0v1.1h-0.2V319h0a1.31,1.31,0,0,0-.5,1.3v0.1h-0.5v-0.1h-0.2l-0.5.5Zm7.7-30.1,0.2-.1V290h0v-0.1h0v-0.1a0.28,0.28,0,0,1,.2-0.2c0.2,0,.2.1,0.2,0.1v0.1h0v0.1h0v0.9h0.2v-0.9h0v-0.1h0v-0.1s0-.1.2-0.1,0.2,0.1.2,0.1v0.1h0v0.1h0v0.9h0.2v-0.9h0v-0.1h0v-0.1a0.1,0.1,0,0,1,.1-0.1,0.2,0.2,0,0,1,.2.2v0.1h0V290h0v0.9L277,291v-0.9l0.3-.4v-0.1l-0.2-.2-0.5-.2h-0.9l-0.6.2-0.2.2v0.1l0.3,0.4V291h-0.1Zm1.9,5.5v-3h-2.1v3H277Zm-6.4,19.4a497688447798.39,497688447798.39,0,0,0-.2-0.2l-0.1.1a0.1,0.1,0,0,0-.1.1v3.2l-0.1-.1v-0.5H270V317h0v-0.4h0v-0.8a282747.88,282747.88,0,0,0-.2-0.2l-0.1.1a0.1,0.1,0,0,0-.1.1v0.5h0v-0.5a282747.56,282747.56,0,0,0-.2-0.2l-0.1.1a0.1,0.1,0,0,0-.1.1v0.8h0V317h0v1.5h-0.1V319l-0.1.1v-3.2a497688447798.13,497688447798.13,0,0,1-.2-0.2l-0.1.1a0.1,0.1,0,0,0-.1.1v3.7a2.54,2.54,0,0,0-.2.7h-0.5l-0.1.1v-5.8s-0.1-1.1,1.6-2a2.12,2.12,0,0,1,1.7,1.9v5.9l-0.1-.1h-0.5a1.08,1.08,0,0,0-.2-0.7v-3.7h0.3Zm0.4-.2a0.1,0.1,0,0,0-.1-0.1l-0.1.1a0.1,0.1,0,0,0-.1.1v3.9H271v-3.9C271.1,315.91,271.1,315.81,271,315.71Zm0.1-.2a0.1,0.1,0,0,0-.1-0.1,0.13,0.13,0,1,0-.2,0l-0.1.1s0.2,0,.2-0.1A0.31,0.31,0,0,0,271.1,315.51Zm0-.9a0.38,0.38,0,0,1-.2.2h0V315h0a0.38,0.38,0,0,1,.2.2v0.1h0.1V315l-0.1-.4h0Zm0-.2a0.28,0.28,0,0,0-.4,0h0a0.48,0.48,0,0,0,0,.4A1131379.22,1131379.22,0,0,0,271.1,314.41Zm-0.4-1a1.08,1.08,0,0,1,.1.6s-0.1.3,0.2,0.2a0.39,0.39,0,0,0,0-.5,0.85,0.85,0,0,1-.3-0.3h0Zm-0.1.8h0c-0.1,0-.1.2-0.4,0.1h0l-0.1.1-0.1.1h0a0.44,0.44,0,0,1-.1.3v0.1A1.92,1.92,0,0,0,270.6,314.21Zm-0.1.6h-0.2a0.1,0.1,0,0,1,.1.1h0l0.1-.1h0Zm-1.2.1h0c0-.1-0.2-0.1-0.1-0.4h0l-0.1-.1-0.1-.1h0a0.44,0.44,0,0,1-.3-0.1h-0.1C268.7,314.21,268.9,314.61,269.3,314.91Zm-0.3-.1h-0.2a0.1,0.1,0,0,1,.1.1h0l0.1-.1h0Zm-0.1-.6H269v-0.1h0l-0.1.1c0.1-.1-0.1-0.2-0.1-0.3h-0.1A0.37,0.37,0,0,0,268.9,314.21Zm0.5-.1v-0.4a0.26,0.26,0,0,0-.3,0,0.31,0.31,0,0,0-.2.1c0.1,0.2.2,0.1,0.2,0.1C269.3,314.21,269.4,314.11,269.4,314.11Zm0,0.6a0.37,0.37,0,0,0,.3.2v-0.1c-0.1,0-.3-0.2-0.3-0.1l0.1-.1h-0.1v0.1Zm0.3,0c0.2-.1.1-0.2,0.1-0.2,0.2-.2,0-0.3,0-0.3h-0.4a0.25,0.25,0,0,0,0,.3A0.53,0.53,0,0,1,269.7,314.71Zm0-.6a0.2,0.2,0,1,0-.2-0.2A0.22,0.22,0,0,0,269.7,314.11Zm0,0.8a0.77,0.77,0,0,0,.3-0.2v-0.1h-0.1v0.1l-0.2.2h0Zm0.6-.9s0.1,0.1.2-.1c-0.1-.2-0.2-0.1-0.2-0.1-0.2-.2-0.3,0-0.3,0v0.4C269.9,314.11,270.1,314.21,270.3,314Zm0.3,0h-0.1a0.38,0.38,0,0,1-.2.2h-0.1v0.1h0.1A0.85,0.85,0,0,0,270.6,314Zm0-.1a0.37,0.37,0,0,0-.2-0.3h-0.1v0.1h0.1l0.2,0.2h0ZM270,313a0.22,0.22,0,0,1,.1.3h0l0.1,0.1,0.1,0.1h0a0.44,0.44,0,0,1,.3.1h0.1a6,6,0,0,0-.7-0.6h0Zm-0.3.1a0.38,0.38,0,0,1,.2.2v0.1H270v-0.2a0.37,0.37,0,0,0-.3-0.2v0.1Zm-0.1.2c-0.2.2,0,.3,0,0.3H270a0.25,0.25,0,0,0,0-.3,0.31,0.31,0,0,0-.1-0.2C269.5,313.31,269.6,313.31,269.6,313.31Zm-0.2,0h0a0.53,0.53,0,0,1,.3-0.2V313a0.77,0.77,0,0,0-.3.2v0.1Zm-0.7.3h0c0.1,0,.1-0.2.4-0.1h0l0.1-.1,0.1-.1h0a0.44,0.44,0,0,1,.1-0.3v-0.1A1.92,1.92,0,0,0,268.7,313.61Zm0,0.3h0.1a0.38,0.38,0,0,1,.2-0.2h0.1v-0.1H269A0.32,0.32,0,0,0,268.7,313.91Zm-0.3.3c0.2,0.1.2-.2,0.2-0.2a1.08,1.08,0,0,1,.1-0.6h0l-0.2.3C268.2,314,268.4,314.21,268.4,314.21Zm-0.2.2a1131379.29,1131379.29,0,0,1,.4.4,0.28,0.28,0,0,0,0-.4h0A0.28,0.28,0,0,0,268.2,314.41Zm0,0.7a0.38,0.38,0,0,1,.2-0.2h0v-0.2h0a0.38,0.38,0,0,1-.2-0.2v-0.1h-0.1v0.3l0.1,0.4h0Zm0.3,0.6a0.1,0.1,0,0,0-.1-0.1l-0.1.1a0.1,0.1,0,0,0-.1.1v3.9h0.3v-3.9C268.6,315.91,268.6,315.81,268.5,315.71Zm0.1-.2a0.1,0.1,0,0,0-.1-0.1,0.13,0.13,0,1,0-.2,0l-0.1.1s0.2,0,.2-0.1C268.4,315.51,268.6,315.51,268.6,315.51Zm0.2-.4h0l-0.1-.1h-0.1l-0.1.1h0a0.49,0.49,0,0,1,.1.3h0A0.34,0.34,0,0,0,268.8,315.11Zm0.2,0.4a0.1,0.1,0,0,0-.1-0.1v-0.1c-0.1.1,0,.1,0,0.1l-0.1.1A0.1,0.1,0,0,1,269,315.51Zm0.3-.4h0l-0.1-.1H269l-0.1.1h0a0.49,0.49,0,0,1,.1.3h0A0.45,0.45,0,0,0,269.3,315.11Zm0.3,0.4a0.1,0.1,0,0,0-.1-0.1,0.13,0.13,0,1,0-.2,0l-0.1.1s0.2,0,.2-0.1C269.4,315.51,269.6,315.51,269.6,315.51Zm0.1-.2a1,1,0,0,0,.1-0.3v-0.1h-0.4V315c0.2,0.1.2,0.3,0.3,0.3h0Zm0.4,0.2a0.1,0.1,0,0,0-.1-0.1,0.13,0.13,0,1,0-.2,0l-0.1.1s0.2,0,.2-0.1A0.31,0.31,0,0,0,270.1,315.51Zm0.3-.4h0l-0.1-.1h-0.2l-0.1.1h0a0.49,0.49,0,0,1,.1.3h0A0.45,0.45,0,0,0,270.4,315.11Zm0.2,0.4a0.1,0.1,0,0,0-.1-0.1v-0.1c-0.1.1,0,.1,0,0.1l-0.1.1A0.1,0.1,0,0,1,270.6,315.51Zm0.1-.1h0a0.77,0.77,0,0,0,.2-0.3h0l-0.1-.1h-0.2l-0.1.1h0A1.44,1.44,0,0,1,270.7,315.41Zm1.6-2.5h7.5V313h-0.1v4.2h-2.8v-2.5a1.68,1.68,0,0,0-.9-1.2h0a1.68,1.68,0,0,0-.9,1.2v2.5h-2.6v-4.3h-0.2Zm5,4.3h1.1v-2.7h0a1.41,1.41,0,0,0-.5-0.6l-0.1-.1-0.1.1a1.41,1.41,0,0,0-.5.6Zm-3.8,0h1.1v-2.7h0a1.41,1.41,0,0,0-.5-0.6l-0.1-.1-0.1.1a1.41,1.41,0,0,0-.5.6Zm-7.4,13.5h-1.9v2.6h-1.8v-2.6h-2.8v4.2h6.2v-0.2l0.2-.3v-3.7h0.1Zm-6.9-8.9h0.1v8.8h-0.1v0.5h0.1v4h-0.9v-4.4h-0.2v-0.1h0.2v-11.2l-0.3-.3,1.3-1.3v3.5h-0.3v0.5h0.1Zm0,3.6h-0.1V326h0.1v-0.6Zm-4.4-.9,3.5-2v7.8h-0.2v0.6h0.2V335h-3.7v-0.8l0.3-.2v-2.3h-0.1v-0.2l0.1-.1v-6.7h-0.1v-0.2Zm2.7-.6h0.2v-0.4h-0.2v0.4Zm-2.3,3.4,0.1,0.3h0.1v2.9h-0.2v0.6h0.2v0.2h-0.2V332h2.7v-0.7h-0.2v-0.2h0.2v-0.6h-0.2v-2.8h0.1l0.1-.3V327h-0.3v-0.2h-0.3v-0.1l-0.2-.4h0a2.18,2.18,0,0,0-.6-0.1h0a2.18,2.18,0,0,0-.6.1h0l-0.2.4v0.1h-0.3V327h-0.3v0.3h0.1Zm0.4,0.1h2.2v-0.2h-0.2V327h-0.3v-0.2l-0.2-.2a4.33,4.33,0,0,0-.5-0.1h0a0.75,0.75,0,0,0-.5.1l-0.1.2V327h-0.3v0.2h-0.3v0.1l0.2,0.1h0Zm17.5,3.1,0.3-.1v-0.1h-0.2v-0.9l0.6-.6h0.1v-0.1h-8.3v0.1h0.1l0.6,0.6v0.9h-0.2v0.1l0.3,0.1v3.9l-0.2.3v0.2h0.9v-0.2l-0.1-.2v-2.6l0.1-.1v-0.1H267v-0.2a0.56,0.56,0,1,1,1,0v0.2h-0.1v0.1l0.1,0.1v2.6l-0.1.2V335h0.8v-0.3l-0.1-.2v-2.6l0.1-.1v-0.1h-0.1v-0.2a1.22,1.22,0,0,1,1-.8,1.07,1.07,0,0,1,1,.8v0.2h0v0.1l0.1,0.1v2.6l-0.1.2V335h0.8v-0.3l-0.1-.2v-2.6l0.1-.1v-0.1h-0.1v-0.2a0.56,0.56,0,1,1,1,0v0.2h-0.1v0.1l0.1,0.1v2.6l-0.1.2V335h0.9v-0.2l-0.2-.3v-4h0.2Zm2.1-7.1V325h-0.7v-1.6a0.51,0.51,0,0,1,.4-0.4C275,323.11,275.1,323.31,275.2,323.41Zm-0.3.1v-0.1a0.13,0.13,0,1,0-.2,0v0.1a0.1,0.1,0,0,0-.1.1v1.1H275v-1.1A0.1,0.1,0,0,0,274.9,323.51Zm2.1-.1V325h-0.7v-1.6a0.51,0.51,0,0,1,.4-0.4C276.8,323.11,276.9,323.31,277,323.41Zm-0.3.1v-0.1a0.13,0.13,0,1,0-.2,0v0.1a0.1,0.1,0,0,0-.1.1v1.1h0.4v-1.1A0.1,0.1,0,0,0,276.7,323.51Zm-1.2,2.8h1.3v2.5h0l-0.1.1h-0.3l-0.2.2H276l-0.2-.2h-0.2l-0.1-.1h0v-2.5Zm0.3,2.1h0.6v-1.1h-0.1v-0.1h0.1v-0.1a0.37,0.37,0,0,0-.3-0.2c-0.3,0-.3.2-0.3,0.2v0.1h0.1v0.1h-0.1v1.1Zm0.8,2.3v2.4h-0.9v-2.4a1.51,1.51,0,0,1,.4-0.4A0.66,0.66,0,0,1,276.6,330.71Zm-0.2.1a0.3,0.3,0,0,0-.6,0v1.7h0.5v-1.7h0.1Zm-15.3-16.3v2.4h0.6v-2.4a1.73,1.73,0,0,0-.3-0.4A0.78,0.78,0,0,0,261.1,314.51Zm2.9,12v3h-1.4v-3A0.71,0.71,0,1,1,264,326.51Zm-0.8.6a0.1,0.1,0,0,0-.1-0.1,0.31,0.31,0,0,0-.1-0.2c-0.1,0-.1.2-0.1,0.2a0.1,0.1,0,0,0-.1.1v1.8h0.4v-1.8h0Zm0-.4a0.1,0.1,0,0,0-.1-0.1,0.13,0.13,0,1,0-.2,0l-0.1.1s0.2,0,.2-0.1C263.1,326.81,263.2,326.71,263.2,326.71Zm0.2-.3h0c0-.1,0-0.2-0.1-0.2a0.1,0.1,0,0,0-.1.1h-0.1v0.1h0a0.1,0.1,0,0,0,.1.1h0l0.2-.1h0Zm0.4,0.7h0c-0.1-.1-0.1-0.2-0.2-0.3s-0.1.2-.1,0.2a0.1,0.1,0,0,0-.1.1v1.8h0.3v-1.8h0.1Zm-0.2-.5a0.13,0.13,0,1,0-.2,0l-0.1.1s0.3,0.1.3-.1c0,0.2.1,0.1,0.1,0.1S263.8,326.71,263.6,326.61Zm-1.3-1.8h0.4V325h-1.4v-0.2h0.4v-1h-0.2v-0.4a0.53,0.53,0,1,1,1,0v0.4h-0.2v1Zm-0.3-1.6c-0.3.2-.2,0.3-0.2,0.3v1.2h0.5v-1.2A0.75,0.75,0,0,0,262,323.21Zm2.9,1.6h0.4V325h-1.4v-0.2h0.4v-1h-0.2v-0.4a0.53,0.53,0,1,1,1,0v0.4h-0.2v1Zm-0.3-1.6c-0.3.2-.2,0.3-0.2,0.3v1.2h0.5v-1.2A0.36,0.36,0,0,0,264.6,323.21ZM259.8,313h-0.2v-0.1h7.1v4.3h-2.4v-2.5a1.68,1.68,0,0,0-.9-1.2h-0.1a1.68,1.68,0,0,0-.9,1.2v2.5h-2.5V313h-0.1Zm4.9,4.2h1.1v-2.7h0a1.41,1.41,0,0,0-.5-0.6l-0.1-.1-0.1.1a1.41,1.41,0,0,0-.5.6Zm-3.8,0H262v-2.7h0a1.41,1.41,0,0,0-.5-0.6l-0.1-.1-0.1.1a1.41,1.41,0,0,0-.5.6Zm-3.3,13.4v-2.9h-1.9v2.9h0.1v-2.3h0a1,1,0,0,1,1.6,0h0v2.3h0.2Zm14.5-8.8h7.7v0.1h-0.1V335h-6.1v-0.3l-0.2-.3v-3.7l0.3-.1v-0.5h-0.2v-0.6l0.4-.4h0.2v-0.5h-0.6l-0.1-.1v-1.1h-0.7l-0.2-.2v-1.1l-0.4-.4v-3.9h0Zm4.7,8.8h0a1.13,1.13,0,0,0-.6-0.6h0a1.13,1.13,0,0,0-.6.6h0v2.7h1.3v-2.7h-0.1Zm0.4-4.6h-2.1v0.4l0.2,0.1v2.1h-0.1v0.5h0.2l0.1,0.1h0.3l0.2,0.2h0.4l0.2-.2h0.3l0.1-.1h0.2v-0.5h-0.1v-2.1l0.2-.1V326h-0.1Zm-1.2-.8h1.2v-1.8h0a1,1,0,0,0-.5-0.6h-0.2a1,1,0,0,0-.5.6v1.8Zm-1.8,0h1.2v-1.8h0a1,1,0,0,0-.5-0.6h-0.2a1,1,0,0,0-.5.6v1.8Zm-16.6,5.7h-2.1V331h0.2v0.7h-0.2v0.2h2.3v-0.2h-0.2V331h0.2v-0.1h-0.2Zm4.8-.4h-2.8v-8.8h7.6v4l-0.4.5v1.1l-0.2.2h-0.7v1.1l-0.1.1h-0.6v0.5h0.2l0.4,0.4v0.6h-0.2v0.4H264a1.48,1.48,0,0,0-.9-0.5h0a1,1,0,0,0-.7.4h0Zm1.3-5.2h1.9v-0.7h-0.4v-0.5h0.2v-0.6a1,1,0,0,0-.8-0.9,1.11,1.11,0,0,0-.8.9v0.6H264v0.5h-0.4v0.7h0.1Zm-2.7,0h1.9v-0.7h-0.4v-0.5h0.2v-0.6a1,1,0,0,0-.8-0.9,1.11,1.11,0,0,0-.8.9v0.6h0.2v0.5h-0.4v0.7H261Zm1.4,4.4h1.8v-3.2h0a1.54,1.54,0,0,0-.9-1h-0.2a2.91,2.91,0,0,0-.9,1Zm0.9,0.5a1.4,1.4,0,0,1,.7.4v2.5h-1.4v-2.5A1.4,1.4,0,0,1,263.3,330.21Zm0,0.4c-0.2,0-.1.3-0.1,0.3V331a0.35,0.35,0,0,0-.2.1v1.7h0.6v-1.7a0.35,0.35,0,0,0-.2-0.1v-0.1C263.4,330.81,263.5,330.61,263.3,330.61Zm-7.2-2.2v2.2h1.1v-2.2a0.55,0.55,0,0,0-.6-0.3A0.69,0.69,0,0,0,256.1,328.41Zm21.5-22.9v2.4h0.6v-2.4A0.31,0.31,0,1,0,277.6,305.51Zm-3.8,0v2.4h0.6v-2.4A0.31,0.31,0,1,0,273.8,305.51Zm1.5-2.5v-2.7h0a1.08,1.08,0,0,1,.7-0.7c0.8,0.4.7,0.7,0.7,0.7V303h-1.4Zm0.3-.2h0.8v-2.2a0.41,0.41,0,1,0-.8,0v2.2Zm-3.3,5.7h7.5v0.1h-0.1v4h-2.8v-2.5a1.68,1.68,0,0,0-.9-1.2h-0.1a1.68,1.68,0,0,0-.9,1.2v2.5h-2.6v-4.1h-0.1Zm5,4.1h1.1v-2.7h0a1.41,1.41,0,0,0-.5-0.6l-0.1-.1-0.1.1a1.41,1.41,0,0,0-.5.6Zm-3.8,0h1.1v-2.7h0a1.41,1.41,0,0,0-.5-0.6l-0.1-.1-0.1.1a1.41,1.41,0,0,0-.5.6Zm3.2-6.8v2.5h-1.5v-2.5a1.43,1.43,0,0,1,.7-1A1.38,1.38,0,0,1,276.7,305.81Zm-0.9.4a0.1,0.1,0,0,0-.1-0.1,0.13,0.13,0,1,0-.2,0,0.1,0.1,0,0,0-.1.1v2h0.4v-2h0Zm0.6-.1a0.13,0.13,0,1,0-.2,0,0.1,0.1,0,0,0-.1.1v2h0.4v-2Zm-0.1-.5a0.78,0.78,0,0,0-.3-0.4,0.55,0.55,0,0,0-.3.4v0.1l0.2,0.2h0.4v-0.3h0Zm-4.2-8.9v0.4l0.1,0.2h7.5l0.1-.2v-0.4h-7.7Zm7.6,3.6-0.1-.2v-2.5h-7.3v2.5l-0.1.2v2.6h-0.1V303H275v-2.7c0-.1,0-0.5.9-1h0.2c0.9,0.5.9,0.9,0.9,1V303h2.9v-0.1h-0.1v-2.6h-0.1Zm-7.4,2.9h7.3v5h-2.7v-2.5a1.68,1.68,0,0,0-.9-1.2h-0.1a1.68,1.68,0,0,0-.9,1.2v2.5h-2.7v-5Zm5,5h1.1v-2.7h0a1.41,1.41,0,0,0-.5-0.6l-0.1-.1-0.1.1a1.41,1.41,0,0,0-.5.6Zm-3.8,0h1.1v-2.7h0a1.41,1.41,0,0,0-.5-0.6l-0.1-.1-0.1.1a1.41,1.41,0,0,0-.5.6Zm0.2,1.7v2.4h0.6v-2.4a1.73,1.73,0,0,0-.3-0.4A1.87,1.87,0,0,1,273.7,309.91Zm4.4,9a1.06,1.06,0,0,0-.5-0.7,2.05,2.05,0,0,0-.5.7v2.6H278v-2.6h0.1Zm-1.4-1.7h-1.5v-2.5a0.74,0.74,0,1,1,1.4,0v2.5h0.1Zm-1-2.2a497688447798.27,497688447798.27,0,0,1-.2-0.2l-0.1.1a0.1,0.1,0,0,0-.1.1v1.9h0.4V315h0Zm0.2-.3h0.2l0.2-.2v-0.1a0.78,0.78,0,0,0-.3-0.4,0.55,0.55,0,0,0-.3.4v0.1l0.2,0.2h0Zm0.5,0.3a497688447798.06,497688447798.06,0,0,1-.2-0.2l-0.1.1a0.1,0.1,0,0,0-.1.1v1.9h0.4V315h0Zm-4,2.8h-0.2v3.1h0v0.6h1.3v-2.6a1.19,1.19,0,0,1,.6-0.9l0.1-.1,0.1,0.1a1.19,1.19,0,0,1,.6.9v2.6H275v-2.1a1.82,1.82,0,0,1,.9-1.5h0.2a1.82,1.82,0,0,1,.9,1.5v2.1h0.1v-2.6a1.19,1.19,0,0,1,.6-0.9l0.1-.1,0.1,0.1a1.19,1.19,0,0,1,.6.9v2.6h1.3v-3.9h0.1v-0.2h-7.4v0.4h-0.1Zm2.2,1.1a1.06,1.06,0,0,0-.5-0.7,2.05,2.05,0,0,0-.5.7v2.6h0.9v-2.6h0.1Zm0.6,2.6v-2.1a1.47,1.47,0,0,1,.7-1.2,1.59,1.59,0,0,1,.7,1.2v2.1h-1.4Zm1.1-2.2a0.1,0.1,0,0,0-.1-0.1l-0.1.1a0.1,0.1,0,0,0-.1.1v1.9h0.4v-1.9A0.1,0.1,0,0,0,276.3,319.31Zm-0.7-.4,0.2,0.2h0.4l0.2-.2v-0.1a0.78,0.78,0,0,0-.3-0.4,0.64,0.64,0,0,0-.5.5h0Zm-0.2,2.4h0.4v-1.9a0.1,0.1,0,0,0-.1-0.1,0.1,0.1,0,0,0-.1-0.1l-0.1.1a0.1,0.1,0,0,0-.1.1v1.9h0Zm2.1-11.4v2.4h0.6v-2.4a1.73,1.73,0,0,0-.3-0.4A0.68,0.68,0,0,1,277.5,309.91Zm-0.8,2.8h-1.5v-2.5a0.74,0.74,0,1,1,1.4,0v2.5h0.1Zm-0.9-2.1a282747.72,282747.72,0,0,0-.2-0.2l-0.1.1a0.1,0.1,0,0,0-.1.1v1.9h0.4v-1.9h0Zm0.1-.3h0.2l0.2-.2V310a0.78,0.78,0,0,0-.3-0.4,0.55,0.55,0,0,0-.3.4v0.1l0.2,0.2h0Zm0.5,0.3a282747.88,282747.88,0,0,0-.2-0.2l-0.1.1a0.1,0.1,0,0,0-.1.1v1.9h0.4v-1.9h0Zm-2.7,3.9v2.4h0.6v-2.4a1.73,1.73,0,0,0-.3-0.4A0.78,0.78,0,0,0,273.7,314.51Zm3.8,0v2.4h0.6v-2.4a1.73,1.73,0,0,0-.3-0.4A4,4,0,0,0,277.5,314.51Zm-16.9-26h1.5l1.2-.5,1.2,0.5H266v-0.7h-1.6l-1.1-.5-1.2.5h-1.5v0.7Zm6.2,9.1-0.2-.1v-0.7l-1.7-.6v1.4h1.9Zm-4.8-1.7v-5.7h2.7v5.7H262Zm1.1-2.9h0.4v-1.8a0.38,0.38,0,0,0-.2-0.2,0.28,0.28,0,0,0-.2.2V293Zm0,2.7h0.4v-1.5a0.38,0.38,0,0,0-.2-0.2,0.28,0.28,0,0,0-.2.2v1.5Zm-1.4.5-1.7.6v0.7l-0.2.1h1.9v-1.4Zm-1.8-3.9-0.2-1.2,2-.8h0v5.8l-1.6.6v-4.1Zm1,1.2,0.1-.1,0.1-.1v-1.8s0-.2-0.1-0.2a0.49,0.49,0,0,0-.1.3v1.9Zm0,2.7,0.1-.1,0.1-.1v-1.5s0-.2-0.1-0.2a0.49,0.49,0,0,0-.1.3v1.6Zm5.7-9.3v0.3l0.3,0.2-0.1-.5V286a0.25,0.25,0,0,0,0-.3v-0.3h-0.2v0.3a0.25,0.25,0,0,0,0,.3v0.9Zm-0.4.9v0.7l0.6,0.2v-0.6Zm0.7-.1-0.7-.4v0.3l0.7,0.4v-0.3Zm0,1.4-0.7-.3v0.6l0.6,0.3v-0.4l0.1-.2h0Zm-0.8.4h-1.5v0.1l0.4,0.1V290l1.7,0.7v-0.5l0.2-.3Zm0.8,1.6-0.2,1.2-0.2.2v4.1l-1.6-.6v-5.7h0Zm-1.2,3.5a0.49,0.49,0,0,0-.1-0.3c-0.1,0-.1.2-0.1,0.2V296l0.1,0.1,0.1,0.1v-1.6Zm0-2.8a0.49,0.49,0,0,0-.1-0.3c-0.1,0-.1.2-0.1,0.2v1.8l0.1,0.1,0.1,0.1v-1.9Zm-5.9-3,0.6-.2v-0.7l-0.6.3v0.6Zm4.1,8.7v2.4h-1.3v-2.4a1.38,1.38,0,0,1,.6-0.7A1.42,1.42,0,0,1,263.9,297.51Zm-0.2.3a0.51,0.51,0,0,0-.4-0.4,0.68,0.68,0,0,0-.4.4v2.1h0.8v-2.1Zm-3.8-7.5v0.5l1.7-.7v-0.4l0.4-.1v-0.1h-1.5l-0.8.4Zm4.9-.4-0.4-.1v-0.3l-1.1-.4-1.1.4v0.3l-0.4.1V290l3-.1h0Zm-0.6,10h2.6v-2.1h-2.2v-1.6h-2.7v1.6h-2.1v2.1h2.6v-2.4a1.17,1.17,0,0,1,.8-0.9h0.2a1.33,1.33,0,0,1,.8.9v2.4h0Zm2.7,8.9v2.3h5.2v-2.3H272v-0.5h0.1v-2.6h-5.2v2.6H267v0.5h-0.1Zm-6.3-19.5h1.5l1.2-.5,1.2,0.5H266v-0.6h-1.6l-1.1-.5-1.1.5h-1.6v0.6Zm3.9-1.7H266v-0.9h-1.5l-1.2-.6-1.2.6h-1.5v0.9h1.5l1.2-.6Zm-4.7,16.3h2.7v-2.4a1.17,1.17,0,0,1,.8-0.9h0.2c0.8,0.5.8,0.8,0.8,0.9v2.4H267v-3.6h0.1v-0.1h-7.5v0.1h0.1v3.6h0.1Zm4.2,1.9v2.5h-1.4v-2.5A0.74,0.74,0,1,1,264,305.81Zm-0.9.4a0.1,0.1,0,0,0-.1-0.1,0.13,0.13,0,1,0-.2,0,0.1,0.1,0,0,0-.1.1v2h0.4v-2h0Zm0.6-.1a0.13,0.13,0,1,0-.2,0,0.1,0.1,0,0,0-.1.1v2h0.4v-2A0.1,0.1,0,0,0,263.7,306.11Zm-0.1-.5a0.78,0.78,0,0,0-.3-0.4,0.55,0.55,0,0,0-.3.4v0.1l0.2,0.2h0.4v-0.3h0Zm-2.5-.1v2.4h0.6v-2.4A0.31,0.31,0,1,0,261.1,305.51Zm-1.3-1.2h-0.2v-0.1h7.3v0.2h0v-0.1h-0.2v4h-2.4v-2.5a1.68,1.68,0,0,0-.9-1.2h-0.1a1.68,1.68,0,0,0-.9,1.2v2.5h-2.5v-4h-0.1Zm4.9,3.9h1.1v-2.7h0a1.41,1.41,0,0,0-.5-0.6l-0.1-.1-0.1.1a1.41,1.41,0,0,0-.5.6Zm-3.8,0H262v-2.7h0a1.41,1.41,0,0,0-.5-0.6l-0.1-.1-0.1.1a1.41,1.41,0,0,0-.5.6Zm4-2.7v2.4h0.6v-2.4A0.31,0.31,0,1,0,264.9,305.51Zm-0.9,4.7v2.5h-1.4v-2.5a1.43,1.43,0,0,1,.7-1A1.27,1.27,0,0,1,264,310.21Zm-0.9.4a282747.56,282747.56,0,0,0-.2-0.2l-0.1.1a0.1,0.1,0,0,0-.1.1v1.9h0.4v-1.9h0Zm0.6-.1a0.1,0.1,0,0,0-.1-0.1l-0.1.1a0.1,0.1,0,0,0-.1.1v1.9h0.4v-1.9A0.1,0.1,0,0,0,263.7,310.51Zm-0.1-.5a0.78,0.78,0,0,0-.3-0.4,0.55,0.55,0,0,0-.3.4v0.1l0.2,0.2h0.4V310h0Zm0.3-8.5v2.4h-1.3v-2.4a1.38,1.38,0,0,1,.6-0.7A1.42,1.42,0,0,1,263.9,301.51Zm-0.2.2a0.51,0.51,0,0,0-.4-0.4,0.68,0.68,0,0,0-.4.4v2.1h0.8v-2.1Zm-3.9,7h-0.2v-0.1h7.1v4.1h-2.4v-2.5a1.68,1.68,0,0,0-.9-1.2h-0.1a1.68,1.68,0,0,0-.9,1.2v2.5h-2.5v-4h-0.1Zm4.9,3.9h1.1v-2.7h0a1.41,1.41,0,0,0-.5-0.6l-0.1-.1-0.1.1a1.41,1.41,0,0,0-.5.6Zm-3.8,0H262v-2.7h0a1.41,1.41,0,0,0-.5-0.6l-0.1-.1-0.1.1a1.41,1.41,0,0,0-.5.6Zm0.2-2.7v2.4h0.6v-2.4A0.31,0.31,0,1,0,261.1,309.91Zm3.8,0v2.4h0.6v-2.4A0.31,0.31,0,1,0,264.9,309.91Zm-4.5-23.4h1.4v-0.2h-0.1v-0.6l-0.2-1.9s0.2-.2,0-0.3v-1.6a0.28,0.28,0,0,0,0-.4v-0.7h-0.2v0.7a0.28,0.28,0,0,0,0,.4v1.6c-0.2.1,0,.3,0,0.3l-0.2,1.9H261l-0.1-.9v-1.7s0.2-.2,0-0.3v-0.5h-0.3v0.5c-0.2.2,0,.3,0,0.3v1.8l-0.3,1.9v0.4l0.1-.1v-0.6Zm2.5-7.5h0.8l0.6,0.3v-0.6l-0.7-.4H263l-0.7.4v0.6Zm0.4,6.9,1.2,0.6h0.1v-0.8l-0.7-5.5,0.2-.2v-0.4l-0.6-.3h-0.7l-0.6.3V280l0.2,0.2-0.7,5.6v0.8h0.1Zm2.9,1.1,0.1,0.1v-0.4l-0.3-1.9v-1.7s0.2-.2,0-0.3v-0.5h-0.2v0.5c-0.2.2,0,.3,0,0.3v1.8l-0.1.9h-0.1l-0.2-1.9s0.2-.2,0-0.3V282a0.28,0.28,0,0,0,0-.4v-0.7h-0.2v0.7a0.28,0.28,0,0,0,0,.4v1.6c-0.2.1,0,.3,0,0.3l-0.2,1.9v0.6h-0.1v0.2h1.4V287h-0.1Zm-3.3-8.8h0.9l-0.2-1.4s0.2-.3-0.1-0.4l-0.1-1.2-0.1-2.6a0.52,0.52,0,0,0,.2-0.5s0-.4-0.2-0.4v-1.4l-0.1-.3-0.1.3v1.4c-0.3,0-.2.4-0.2,0.4a0.77,0.77,0,0,0,.2.5l-0.1,2.6-0.1,1.2a0.35,0.35,0,0,0-.1.4l0.1,1.4h0Zm2,36.3v2.4h0.6v-2.4a1.73,1.73,0,0,0-.3-0.4A0.78,0.78,0,0,0,264.9,314.51Zm-5.1-27.1,0.3-.2V286a0.25,0.25,0,0,0,0-.3v-0.3h-0.2v0.3a0.25,0.25,0,0,0,0,.3v0.9Zm0,2.2,0.6-.3v-0.6l-0.7.3h0l0.1,0.1v0.5h0Zm0.6-2.3-0.7.4v0.2l0.7-.4v-0.2Z" transform="translate(-190.6 -229.61)"/><polyline class="cls-12" points="146 0 146 110.7 7.6 110.7 7.6 0"/></svg>