<svg id="Layer_1" data-name="Layer 1" xmlns="http://www.w3.org/2000/svg" xmlns:xlink="http://www.w3.org/1999/xlink" viewBox="0 0 62.1 111.6"><defs><style>.cls-1{fill:url(#linear-gradient);}</style><linearGradient id="linear-gradient" x1="473.67" y1="405.35" x2="535.93" y2="405.35" gradientTransform="matrix(1, 0, 0, -1, 0, 844)" gradientUnits="userSpaceOnUse"><stop offset="0.01" stop-color="#010101"/><stop offset="1"/></linearGradient></defs><title>tram-logo</title><g id="Layer_4" data-name="Layer 4"><path id="icon" class="cls-1" d="M535.9,458.35v-49.8a13.79,13.79,0,0,0-13.9-13.5H507.9l3.4-10.1v-0.4c8.7,0.3,10.3,1.1,10.5,1.5a0.8,0.8,0,1,0,1.6,0,1.53,1.53,0,0,0-.5-1.1c-1.5-1.5-6.8-2.1-18.4-2.1-5.4,0-9.6.2-12.8,0.5-4.4.5-6.1,1.3-6.1,2.7a0.86,0.86,0,0,0,.8.8,0.77,0.77,0,0,0,.8-0.7c0.2-.2,1.5-1.2,10.5-1.6a0.6,0.6,0,0,0,.1.4l4,10H487.7a13.79,13.79,0,0,0-13.9,13.5v49.8c0,6.8,5.3,12.4,10.7,13.3h4.8L476,494.45h6.2l0.3-.5a0.94,0.94,0,0,1,.9-0.5h42.9a1.05,1.05,0,0,1,.9.5l0.3,0.5h6.2l-13.2-22.8h4.8C530.6,470.75,535.9,465.25,535.9,458.35Zm-36.6-73.7c1.5,0,3.3-.1,5.2-0.1s3.7,0,5.2.1l-3.5,10.5h-2.7Zm-3.6,15.6a2.31,2.31,0,0,1,2.3-2.2h13.6a2.31,2.31,0,0,1,2.3,2.2v4a2.33,2.33,0,0,1-2.3,2.3H498a2.26,2.26,0,0,1-2.3-2.3v-4Zm-14.6,15.9c0-3.7,2.4-7,6.9-7h33.4a6.66,6.66,0,0,1,7,7v9a6.64,6.64,0,0,1-7,6.9H488a6.56,6.56,0,0,1-6.9-6.9v-9ZM514.4,472c0.1,0.2,2.4,4.2,2.7,4.7a0.45,0.45,0,0,1-.4.7H493a0.51,0.51,0,0,1-.5-0.7c0.2-.4,2.5-4.4,2.7-4.7a0.6,0.6,0,0,1,.6-0.3h18.1A0.55,0.55,0,0,1,514.4,472Zm-27.1-7.6a6.1,6.1,0,1,1,6.1-6.1A6.06,6.06,0,0,1,487.3,464.35Zm33.3,18.5c0.1,0.2,2.4,4.2,2.7,4.7a0.47,0.47,0,0,1-.5.7H486.6a0.44,0.44,0,0,1-.4-0.7c0.2-.4,2.5-4.4,2.7-4.7a0.6,0.6,0,0,1,.6-0.3h30.6A0.55,0.55,0,0,1,520.6,482.85Zm-4.6-24.6a6.1,6.1,0,1,1,6.1,6.1A6.12,6.12,0,0,1,516,458.25Z" transform="translate(-473.8 -382.85)"/></g></svg>